<svg xmlns="http://www.w3.org/2000/svg" width="172.063" height="86.799" viewBox="0 0 172.063 86.799"><g transform="translate(-102.425 -272.805)"><text transform="translate(102.925 324.104)" stroke="#000" stroke-miterlimit="10" stroke-width="0.5" font-size="27" font-family="CourierNewPSMT, Courier New"><tspan x="0" y="0">CIVIL </tspan><tspan x="0" y="27">SUCCULENTS</tspan></text><path d="M195.74,311.69l.04.04.02.02c.17.14.35.27.52.4l.09.06a.467.467,0,0,0,.1.05.035.035,0,0,1,.02.01c.2.09.41.18.61.26.02.01.03.01.05.02a.8.8,0,0,0,.21.05c.22.03.46.07.68.09h.2a1.861,1.861,0,0,0,.96-.22,1.769,1.769,0,0,0,.8-.52,1.915,1.915,0,0,0,.52-.8,1.884,1.884,0,0,0,.22-.96l-.09-.66a2.5,2.5,0,0,0-.64-1.1l-.51-.39a2.433,2.433,0,0,0-1.26-.34.741.741,0,0,1-.21-.01l.66.09a1.344,1.344,0,0,1-.27-.07c.2.08.4.17.6.25a1.045,1.045,0,0,1-.23-.13l.51.39a.5.5,0,0,1-.08-.07,1.915,1.915,0,0,0-.8-.52,1.884,1.884,0,0,0-.96-.22,1.861,1.861,0,0,0-.96.22,1.769,1.769,0,0,0-.8.52l-.39.51a2.433,2.433,0,0,0-.34,1.26l.09.66a2.39,2.39,0,0,0,.64,1.11Z" fill="#6e4e2f"/><path d="M201.65,326.8a22.552,22.552,0,0,1,4.78,2.47.635.635,0,0,0,.86-.22.644.644,0,0,0-.22-.86,22.949,22.949,0,0,0-5.08-2.59.624.624,0,0,0-.34,1.2Z"/><path d="M206.78,329.35l3.55-.06a.62.62,0,0,0,0-1.24l-3.55.06a.623.623,0,0,0-.62.62.63.63,0,0,0,.62.62Z"/><path d="M210.37,329.3a18.932,18.932,0,0,0,3.68-.4.636.636,0,0,0,.44-.77.65.65,0,0,0-.77-.44,16.436,16.436,0,0,1-3.35.36.617.617,0,0,0-.62.62.639.639,0,0,0,.62.63Z"/><path d="M214.57,327.87a5.055,5.055,0,0,1,1.59-1.46l.35-.32,2.97-11.14,1.75-.7v-6.13l-2.62,1.95-6.29,1.57-8.56-1.57-6.81-1.95v6.83h1.57l1.92,5.92,1.22,5.4,2.97,1.22,2.1,1.22h3.78l3.9-.7Z" fill="#5a3a1b"/><path d="M219.7,302.45l-2.54-5.54a.819.819,0,0,0-.41-.41l-4.61-2.22a.808.808,0,0,0-.37-.09h-7.54a.91.91,0,0,0-.54.19l-3.09,2.46a.807.807,0,0,0-.25.33l-1.53,3.55a7.549,7.549,0,0,1-.32,2.17l.52,3.25.03.12,1.13,3.67a.86.86,0,0,0,.74.6l8.2.72h8.07a.857.857,0,0,0,.84-.69l.73-3.62.98-3.93A.779.779,0,0,0,219.7,302.45Z" fill="#63b157"/><path d="M215.89,318.42" fill="#fff"/><path d="M204.54,297.42c3.22,0,3.22-5,0-5s-3.22,5,0,5Z" fill="#63b157"/><path d="M203.14,312.39c3.22,0,3.22-5,0-5s-3.22,5,0,5Z" fill="#63b157"/><path d="M205.99,309.91c-.15-1.12-.33-2.54-.37-3.86-.02-.55-.01-1.1.02-1.64.02-.36.05-.71.09-1.07a1.556,1.556,0,0,1,.05-.4,18.265,18.265,0,0,1,2.29-6.43,2.5,2.5,0,1,0-4.32-2.52,22.253,22.253,0,0,0-2.84,7.89,31.943,31.943,0,0,0,.26,9.36,2.519,2.519,0,0,0,3.08,1.75,2.57,2.57,0,0,0,1.74-3.08Z" fill="#63b157"/><path d="M206.35,293.32c-5.96,3.32-5.58,11.41-5.51,17.27a1.251,1.251,0,0,0,2.5,0,43.338,43.338,0,0,1,.45-9.11,8.469,8.469,0,0,1,3.82-6,1.251,1.251,0,0,0-1.26-2.16Z" fill="#43914d"/><path d="M210.37,295.54c2.56,1.02,3.53,3.48,3.67,6.05.17,3.17.22,6.35.32,9.52.05,1.6,2.55,1.61,2.5,0-.06-1.84-.12-3.68-.18-5.53-.06-1.83-.04-3.7-.28-5.52a8.475,8.475,0,0,0-5.37-6.94,1.269,1.269,0,0,0-1.54.87,1.3,1.3,0,0,0,.88,1.55Z" fill="#43914d"/><path d="M207.57,294.68c1.3,5.38.43,10.93-.44,16.3-.26,1.57,2.15,2.25,2.41.66.95-5.83,1.85-11.79.44-17.63-.38-1.56-2.79-.89-2.41.67Z" fill="#43914d"/><path d="M205.16,296.49v-1.22a.647.647,0,0,0-.18-.44.62.62,0,0,0-.44-.18.615.615,0,0,0-.62.62v1.22a.647.647,0,0,0,.18.44.62.62,0,0,0,.44.18.615.615,0,0,0,.62-.62Z" fill="#2c653c"/><path d="M205.06,296.79c.18-.23.35-.46.53-.69a.389.389,0,0,0,.07-.23.555.555,0,0,0-.12-.46.4.4,0,0,0-.18-.16.583.583,0,0,0-.48-.06l-.15.06a.661.661,0,0,0-.22.22c-.18.23-.35.46-.53.69a.389.389,0,0,0-.07.23.555.555,0,0,0,.12.46.4.4,0,0,0,.18.16.583.583,0,0,0,.48.06l.15-.06a.519.519,0,0,0,.22-.22Z" fill="#2c653c"/><path d="M204.54,296.04a2.173,2.173,0,0,1-.25-.01c.06.01.11.01.17.02a1.849,1.849,0,0,1-.42-.11l.15.06a2.122,2.122,0,0,1-.36-.21,1.469,1.469,0,0,0,.13.1l-.01-.01a.533.533,0,0,0-.2-.13.387.387,0,0,0-.24-.05.647.647,0,0,0-.44.18.62.62,0,0,0-.18.44.647.647,0,0,0,.18.44,2.8,2.8,0,0,0,.35.25,3,3,0,0,0,.41.18,2.87,2.87,0,0,0,.28.07,3.421,3.421,0,0,0,.45.04.647.647,0,0,0,.44-.18.62.62,0,0,0,.18-.44.647.647,0,0,0-.18-.44.623.623,0,0,0-.46-.2Z" fill="#2c653c"/><path d="M204.5,298.04a1.494,1.494,0,0,0-.36-.59,1.472,1.472,0,0,0-.59-.35,1.416,1.416,0,0,0-1.22.12.624.624,0,0,0,.14,1.14.618.618,0,0,0,.48-.06.313.313,0,0,1,.1-.05l-.15.06a.728.728,0,0,1,.21-.06c-.06.01-.11.01-.17.02a.885.885,0,0,1,.23,0c-.06-.01-.11-.01-.17-.02a1.028,1.028,0,0,1,.25.07l-.15-.06a.818.818,0,0,1,.2.12,1.469,1.469,0,0,0-.13-.1.536.536,0,0,1,.15.15,1.469,1.469,0,0,1-.1-.13.949.949,0,0,1,.1.17l-.06-.15c.01.02.01.04.02.06a.627.627,0,0,0,.29.37.618.618,0,0,0,.48.06.6.6,0,0,0,.37-.29.52.52,0,0,0,.08-.48Z" fill="#2c653c"/><path d="M202.61,299.2c.35-.06.7-.12,1.05-.19a.6.6,0,0,0,.37-.29.618.618,0,0,0,.06-.48.6.6,0,0,0-.29-.37l-.15-.06a.616.616,0,0,0-.33,0c-.35.06-.7.12-1.05.19a.6.6,0,0,0-.37.29.618.618,0,0,0-.06.48.6.6,0,0,0,.29.37l.15.06a.616.616,0,0,0,.33,0Z" fill="#2c653c"/><path d="M203.04,298.4v1.22a.647.647,0,0,0,.18.44.62.62,0,0,0,.44.18.615.615,0,0,0,.62-.62V298.4a.647.647,0,0,0-.18-.44.62.62,0,0,0-.44-.18.615.615,0,0,0-.62.62Z" fill="#2c653c"/><path d="M201.93,302.2l.01-.01a1.469,1.469,0,0,0-.1.13,1.211,1.211,0,0,1,.16-.16,1.469,1.469,0,0,1-.13.1.72.72,0,0,1,.21-.12.935.935,0,0,0-.15.06.771.771,0,0,1,.26-.07c-.06.01-.11.01-.17.02a.963.963,0,0,1,.24,0c-.06-.01-.11-.01-.17-.02a.935.935,0,0,1,.16.04c-.15-.2-.31-.4-.46-.6.01.28.02.56.02.85a.647.647,0,0,0,.18.44.62.62,0,0,0,.44.18.647.647,0,0,0,.44-.18.6.6,0,0,0,.18-.44c-.01-.28-.02-.56-.02-.85a.629.629,0,0,0-.45-.6.393.393,0,0,0-.14-.03,1.553,1.553,0,0,0-.31-.03,1.366,1.366,0,0,0-.45.07,1.226,1.226,0,0,0-.4.19c-.08.06-.16.12-.24.19a2.108,2.108,0,0,0-.19.23.389.389,0,0,0-.07.23.53.53,0,0,0,.01.25.627.627,0,0,0,.29.37.583.583,0,0,0,.48.06l.15-.06a.829.829,0,0,0,.22-.24Z" fill="#2c653c"/><path d="M201.71,301.73l-.66,1.41a.671.671,0,0,0-.06.48.627.627,0,0,0,.29.37.583.583,0,0,0,.48.06.574.574,0,0,0,.37-.29l.66-1.41a.671.671,0,0,0,.06-.48.627.627,0,0,0-.29-.37.583.583,0,0,0-.48-.06.714.714,0,0,0-.37.29Z" fill="#2c653c"/><path d="M200.93,305.65a1.56,1.56,0,0,0,2.57-.66.626.626,0,0,0-.43-.77.618.618,0,0,0-.48.06.667.667,0,0,0-.29.37.358.358,0,0,1-.04.11l.06-.15a.95.95,0,0,1-.1.17,1.469,1.469,0,0,0,.1-.13.711.711,0,0,1-.15.15,1.469,1.469,0,0,1,.13-.1,1.594,1.594,0,0,1-.22.13l.15-.06a.886.886,0,0,1-.28.07c.06-.01.11-.01.17-.02a1.044,1.044,0,0,1-.25,0c.06.01.11.01.17.02a.8.8,0,0,1-.22-.06l.15.06a.949.949,0,0,1-.17-.1,1.469,1.469,0,0,0,.13.1.9.9,0,0,1-.1-.09.628.628,0,0,0-.88,0,.643.643,0,0,0-.02.9Z" fill="#2c653c"/><path d="M201.83,305.45c-.23.23-.47.46-.7.7a.533.533,0,0,0-.13.2.388.388,0,0,0-.05.24.471.471,0,0,0,.05.24.533.533,0,0,0,.13.2.62.62,0,0,0,.44.18.647.647,0,0,0,.44-.18c.23-.23.47-.46.7-.7a.533.533,0,0,0,.13-.2.388.388,0,0,0,.05-.24.471.471,0,0,0-.05-.24.533.533,0,0,0-.13-.2.62.62,0,0,0-.44-.18.6.6,0,0,0-.44.18Z" fill="#2c653c"/><path d="M201.4,308.62c.21-.06.42-.13.63-.19l-.71-.92c-.16.23-.31.45-.47.68a.389.389,0,0,0-.07.23.555.555,0,0,0,.12.46.4.4,0,0,0,.18.16.583.583,0,0,0,.48.06l.15-.06a.661.661,0,0,0,.22-.22c.16-.23.31-.45.47-.68l.06-.15c.01-.06.01-.11.02-.17-.01-.06-.01-.11-.02-.17a.529.529,0,0,0-.11-.21.384.384,0,0,0-.11-.11.247.247,0,0,0-.14-.08.293.293,0,0,0-.16-.04.529.529,0,0,0-.25.01c-.21.06-.42.13-.63.19a.667.667,0,0,0-.37.29.389.389,0,0,0-.07.23.53.53,0,0,0,.01.25.6.6,0,0,0,.29.37.621.621,0,0,0,.48.07Z" fill="#2c653c"/><path d="M201.3,308.24l.52.52a.533.533,0,0,0,.2.13.387.387,0,0,0,.24.05.471.471,0,0,0,.24-.05.533.533,0,0,0,.2-.13,1.469,1.469,0,0,0,.1-.13.7.7,0,0,0,.09-.32c-.01-.06-.01-.11-.02-.17a.606.606,0,0,0-.16-.28l-.52-.52a.533.533,0,0,0-.2-.13.387.387,0,0,0-.24-.05.471.471,0,0,0-.24.05.533.533,0,0,0-.2.13,1.469,1.469,0,0,0-.1.13.7.7,0,0,0-.09.32c.01.06.01.11.02.17a.592.592,0,0,0,.16.28Z" fill="#2c653c"/><path d="M208.54,297.43c.29-.12.58-.23.87-.35a.529.529,0,0,0,.21-.11.4.4,0,0,0,.16-.18.389.389,0,0,0,.07-.23.53.53,0,0,0-.01-.25.6.6,0,0,0-.29-.37l-.15-.06a.616.616,0,0,0-.33,0c-.29.12-.58.23-.87.35a.529.529,0,0,0-.21.11.4.4,0,0,0-.16.18.389.389,0,0,0-.07.23.53.53,0,0,0,.01.25.6.6,0,0,0,.29.37l.15.06a.616.616,0,0,0,.33,0Z" fill="#2c653c"/><path d="M208.63,296.49v.7a.471.471,0,0,0,.05.24.575.575,0,0,0,.33.33.387.387,0,0,0,.24.05.615.615,0,0,0,.62-.62v-.7a.471.471,0,0,0-.05-.24.575.575,0,0,0-.33-.33.387.387,0,0,0-.24-.05.615.615,0,0,0-.62.62Z" fill="#2c653c"/><path d="M209.25,297.11h.87a.647.647,0,0,0,.44-.18.533.533,0,0,0,.13-.2.388.388,0,0,0,.05-.24.615.615,0,0,0-.62-.62h-.87a.647.647,0,0,0-.44.18.533.533,0,0,0-.13.2.388.388,0,0,0-.05.24.647.647,0,0,0,.18.44.687.687,0,0,0,.44.18Z" fill="#2c653c"/><path d="M208.87,300.68c.35-.17.7-.35,1.05-.52a.624.624,0,0,0-.14-1.14c-.06-.01-.11-.01-.17-.02a.62.62,0,0,0-.32.09c-.35.17-.7.35-1.05.52a.624.624,0,0,0,.14,1.14c.06.01.11.01.17.02a.7.7,0,0,0,.32-.09Z" fill="#2c653c"/><path d="M209.05,299.95c.09.12.18.23.28.34a3.168,3.168,0,0,0,.34.28,2.687,2.687,0,0,0,.65.34.427.427,0,0,0,.25.01.475.475,0,0,0,.23-.07.667.667,0,0,0,.29-.37.618.618,0,0,0-.06-.48,1.469,1.469,0,0,1-.1-.13.606.606,0,0,0-.28-.16.487.487,0,0,0-.07-.03l.15.06a2.509,2.509,0,0,1-.45-.26,1.469,1.469,0,0,0,.13.1,2.527,2.527,0,0,1-.37-.36,1.469,1.469,0,0,1,.1.13c-.01-.01-.01-.02-.02-.02a.548.548,0,0,0-.16-.18.555.555,0,0,0-.46-.12.475.475,0,0,0-.23.07.667.667,0,0,0-.29.37c-.01.06-.01.11-.02.17a.586.586,0,0,0,.09.31Z" fill="#2c653c"/><path d="M209.51,301.44a2.8,2.8,0,0,0,.25-.35,2.873,2.873,0,0,0,.18-.4,2.76,2.76,0,0,0,.08-.27,2.3,2.3,0,0,0,.05-.45.647.647,0,0,0-.18-.44.62.62,0,0,0-.44-.18.615.615,0,0,0-.62.62c0,.06-.01.13-.01.19.01-.06.01-.11.02-.17a1.62,1.62,0,0,1-.12.43l.06-.15a1.722,1.722,0,0,1-.22.37,1.469,1.469,0,0,0,.1-.13c-.01.01-.02.03-.03.04a.533.533,0,0,0-.13.2.388.388,0,0,0-.05.24.647.647,0,0,0,.18.44.62.62,0,0,0,.44.18.538.538,0,0,0,.44-.17Z" fill="#2c653c"/><path d="M210.47,303.7c-.35-.12-.7-.23-1.05-.35a.626.626,0,0,0-.77.43.618.618,0,0,0,.06.48.714.714,0,0,0,.37.29c.35.12.7.23,1.05.35a.626.626,0,0,0,.77-.43.618.618,0,0,0-.06-.48.677.677,0,0,0-.37-.29Z" fill="#2c653c"/><path d="M208.21,304.77h.7a.471.471,0,0,0,.24-.05.575.575,0,0,0,.33-.33.388.388,0,0,0,.05-.24.615.615,0,0,0-.62-.62h-.7a.471.471,0,0,0-.24.05.575.575,0,0,0-.33.33.388.388,0,0,0-.05.24.615.615,0,0,0,.62.62Z" fill="#2c653c"/><path d="M210.04,305.37v-.02c.01.06.01.11.02.17a1.548,1.548,0,0,1,0-.43c-.01.06-.01.11-.02.17a1.69,1.69,0,0,1,.12-.44l-.06.15a.916.916,0,0,1,.09-.17.642.642,0,0,0-.22-.86c-.18-.11-.37-.22-.55-.34a.62.62,0,0,0-.85.23.654.654,0,0,0,.22.86c.18.11.37.22.55.34-.07-.29-.15-.57-.22-.86a2.336,2.336,0,0,0-.26.68,2.1,2.1,0,0,0-.05.43,3.272,3.272,0,0,0,.04.44.627.627,0,0,0,.29.37.618.618,0,0,0,.48.06.6.6,0,0,0,.37-.29l.06-.15a.776.776,0,0,0-.01-.34Z" fill="#2c653c"/><path d="M208.71,308.04c.29-.11.59-.21.88-.32a.529.529,0,0,0,.21-.11.4.4,0,0,0,.16-.18.389.389,0,0,0,.07-.23.53.53,0,0,0-.01-.25.6.6,0,0,0-.29-.37.578.578,0,0,0-.48-.06c-.29.11-.59.21-.88.32a.529.529,0,0,0-.21.11.4.4,0,0,0-.16.18.389.389,0,0,0-.07.23.53.53,0,0,0,.01.25.6.6,0,0,0,.29.37.677.677,0,0,0,.48.06Z" fill="#2c653c"/><path d="M210.05,307.98v-.87a.647.647,0,0,0-.18-.44.533.533,0,0,0-.2-.13.387.387,0,0,0-.24-.05.615.615,0,0,0-.62.62v.87a.647.647,0,0,0,.18.44.533.533,0,0,0,.2.13.387.387,0,0,0,.24.05.615.615,0,0,0,.62-.62Z" fill="#2c653c"/><path d="M208.03,307.21a4.219,4.219,0,0,1,.71.03c-.06-.01-.11-.01-.17-.02a4.3,4.3,0,0,1,.69.16.626.626,0,0,0,.77-.43.637.637,0,0,0-.44-.77,4.36,4.36,0,0,0-1.56-.21.666.666,0,0,0-.44.18.62.62,0,0,0-.18.44.647.647,0,0,0,.18.44.72.72,0,0,0,.44.18Z" fill="#2c653c"/><path d="M213.53,297.19a.606.606,0,0,1,0-.19c-.01.06-.01.11-.02.17a.865.865,0,0,1,.06-.23l-.06.15a.98.98,0,0,1,.13-.22,1.469,1.469,0,0,0-.1.13,1.26,1.26,0,0,1,.2-.2,1.469,1.469,0,0,1-.13.1,1.35,1.35,0,0,1,.26-.15l-.15.06a1.38,1.38,0,0,1,.27-.08c-.06.01-.11.01-.17.02a.963.963,0,0,1,.24,0c-.06-.01-.11-.01-.17-.02a.8.8,0,0,1,.22.06l-.15-.06c.01,0,.01,0,.02.01a.389.389,0,0,0,.23.07.529.529,0,0,0,.25-.01.627.627,0,0,0,.37-.29.583.583,0,0,0,.06-.48.6.6,0,0,0-.29-.37,2.174,2.174,0,0,0-.27-.11,1.372,1.372,0,0,0-.28-.05,1.414,1.414,0,0,0-.41.02,1.55,1.55,0,0,0-.64.26,1.789,1.789,0,0,0-.56.6,1.423,1.423,0,0,0-.18.81.7.7,0,0,0,.18.44.62.62,0,0,0,.44.18.647.647,0,0,0,.44-.18.519.519,0,0,0,.21-.44Z" fill="#2c653c"/><path d="M213.17,295.97v1.57a.623.623,0,0,0,.62.62.63.63,0,0,0,.62-.62v-1.57a.623.623,0,0,0-.62-.62.63.63,0,0,0-.62.62Z" fill="#2c653c"/><path d="M214.29,300.17c.41-.22.83-.44,1.24-.66a.627.627,0,0,0,.29-.37.665.665,0,0,0-.06-.48.642.642,0,0,0-.86-.22c-.41.22-.83.44-1.24.66a.627.627,0,0,0-.29.37.665.665,0,0,0,.06.48.651.651,0,0,0,.86.22Z" fill="#2c653c"/><path d="M214.15,299.36c.35.06.7.13,1.04.19a.427.427,0,0,0,.25.01.475.475,0,0,0,.23-.07.667.667,0,0,0,.29-.37.618.618,0,0,0-.06-.48.627.627,0,0,0-.37-.29c-.35-.06-.7-.13-1.04-.19a.427.427,0,0,0-.25-.01.475.475,0,0,0-.23.07.667.667,0,0,0-.29.37.618.618,0,0,0,.06.48.6.6,0,0,0,.37.29Z" fill="#2c653c"/><path d="M214.8,302.58l1.23-.87a.7.7,0,0,0,.29-.37.626.626,0,0,0-.43-.77.612.612,0,0,0-.48.06l-1.23.87a.7.7,0,0,0-.29.37.626.626,0,0,0,.43.77.583.583,0,0,0,.48-.06Z" fill="#2c653c"/><path d="M215.04,301.57l.18.12a1.469,1.469,0,0,0-.13-.1,1.6,1.6,0,0,1,.26.26,1.469,1.469,0,0,1-.1-.13,1.35,1.35,0,0,1,.19.33l-.06-.15a1.583,1.583,0,0,1,.09.31.529.529,0,0,0,.11.21.4.4,0,0,0,.18.16.618.618,0,0,0,.48.06.6.6,0,0,0,.37-.29l.06-.15a.616.616,0,0,0,0-.33,2.473,2.473,0,0,0-.15-.46,1.64,1.64,0,0,0-.16-.29,2.179,2.179,0,0,0-.7-.65.618.618,0,0,0-.48-.06.627.627,0,0,0-.37.29.583.583,0,0,0-.06.48.689.689,0,0,0,.29.39Z" fill="#2c653c"/><path d="M214.2,304.73a.941.941,0,0,0-.15.49.885.885,0,0,0,.09.42,1.226,1.226,0,0,0,1.43.7,1.659,1.659,0,0,0,.71-.42,3.715,3.715,0,0,0,.49-.62.618.618,0,0,0,.06-.48.627.627,0,0,0-.29-.37.644.644,0,0,0-.86.22c-.06.09-.13.19-.19.28a1.469,1.469,0,0,0,.1-.13,2.13,2.13,0,0,1-.29.31,1.469,1.469,0,0,1,.13-.1.981.981,0,0,1-.22.13l.15-.06a1.208,1.208,0,0,1-.18.05c.06-.01.11-.01.17-.02a.284.284,0,0,1-.13,0c.06.01.11.01.17.02a.749.749,0,0,1-.16-.04l.15.06a.637.637,0,0,1-.14-.08,1.469,1.469,0,0,0,.13.1,1.2,1.2,0,0,1-.12-.11,1.469,1.469,0,0,1,.1.13.746.746,0,0,1-.07-.12l.06.15c-.01-.04-.02-.07-.03-.11.01.06.01.11.02.17v-.08c-.01.06-.01.11-.02.17a.235.235,0,0,1,.02-.08l-.06.15c.01-.03.03-.05.04-.08a.62.62,0,0,0-.23-.85.583.583,0,0,0-.48-.06.563.563,0,0,0-.4.26Z" fill="#2c653c"/><path d="M215.72,307.7h-1.05a.647.647,0,0,0-.44.18.62.62,0,0,0-.18.44.615.615,0,0,0,.62.62h1.05a.647.647,0,0,0,.44-.18.62.62,0,0,0,.18-.44.615.615,0,0,0-.62-.62Z" fill="#2c653c"/><path d="M214.99,308.48c.17.29.34.59.51.88a.627.627,0,0,0,.37.29.427.427,0,0,0,.25.01.475.475,0,0,0,.23-.07.62.62,0,0,0,.23-.85c-.17-.29-.34-.59-.51-.88a.627.627,0,0,0-.37-.29.427.427,0,0,0-.25-.01.475.475,0,0,0-.23.07.667.667,0,0,0-.29.37.623.623,0,0,0,.06.48Z" fill="#2c653c"/><path d="M196.45,308.34a24.336,24.336,0,0,0-.37,6.6.637.637,0,0,0,.62.62.623.623,0,0,0,.62-.62,22.751,22.751,0,0,1,.32-6.27.646.646,0,0,0-.44-.77.634.634,0,0,0-.75.44Z"/><path d="M196.89,308.69l2.28,1.2a.628.628,0,1,0,.64-1.08l-2.28-1.2a.651.651,0,0,0-.86.22.63.63,0,0,0,.22.86Z"/><path d="M216.73,311.99c1.57-.94,3.13-1.88,4.7-2.81a.626.626,0,0,0-.63-1.08c-1.57.94-3.13,1.88-4.7,2.81a.625.625,0,0,0,.63,1.08Z"/><path d="M220.64,308.5a20.731,20.731,0,0,1-.21,5.56.646.646,0,0,0,.44.77.633.633,0,0,0,.77-.44,21.945,21.945,0,0,0,.26-5.89.63.63,0,0,0-1.26,0Z"/><path d="M196.88,315.64a112.785,112.785,0,0,0,15.56,1.43,12.109,12.109,0,0,0,5.45-.63c1.16-.53,2.3-1.12,3.46-1.67.73-.34.09-1.42-.63-1.08-1.04.49-2.06.99-3.09,1.49-1.78.86-3.72.67-5.65.63a110.794,110.794,0,0,1-14.77-1.37c-.79-.13-1.13,1.07-.33,1.2Z"/><path d="M197.76,308.92c.08.01.17.01.25.02.04,0,.23,0,.25.03-.03,0-.05-.01-.08-.01.03,0,.06.01.08.01s.07.01.1.02a2.216,2.216,0,0,1,.25.05l.22.06c.04.01.08.03.12.04.13.05-.13-.06,0,0a1.434,1.434,0,0,1,.21.12.555.555,0,0,1,.08.06c.04.03.02.02-.04-.04a.265.265,0,0,0,.06.05c.25-.33.5-.65.76-.98a1.95,1.95,0,0,0-.37-.21,1.774,1.774,0,0,0-.64-.16c-.14-.01.09.03.01,0l-.12-.03c-.11-.03.06.03-.01,0-.04-.02-.07-.03-.11-.05-.18-.08-.36-.15-.54-.22a4.393,4.393,0,0,0-.94-.27.684.684,0,0,0-.75.56c-.04.16-.07.32-.1.48a.627.627,0,0,0,1.21.33c.02-.1.04-.19.06-.29.01-.05.02-.1.03-.14,0-.02.01-.03.01-.05.02-.08.01-.06-.03.05-.12.1-.25.19-.37.29.01,0,.02-.01.03-.01h-.33a3.685,3.685,0,0,1,.65.18c.11.04.22.08.32.12.05.02.09.03.14.05-.14-.07.02.01.05.02a2.782,2.782,0,0,0,.4.16,1.543,1.543,0,0,0,.31.05c.04.01.1,0,.14.01-.15-.05-.03,0,.01.01.06.02.06.02-.03-.02.03.01.05.03.08.04.09.05.18.11.27.17a.634.634,0,0,0,.81-.16.614.614,0,0,0-.05-.82,3.92,3.92,0,0,0-2.4-.78.617.617,0,0,0-.62.62.641.641,0,0,0,.62.64Z"/><path d="M196.44,310.12a22.148,22.148,0,0,0-.33,3.14c-.02.5-.03,1,0,1.5a1,1,0,0,0,.35.77.887.887,0,0,0,.83.15.646.646,0,0,0,.44-.77.637.637,0,0,0-.77-.44c.26-.09.36.53.41.29a1.821,1.821,0,0,0-.01-.33c0-.19-.01-.37,0-.56,0-.39.01-.78.04-1.17a20.931,20.931,0,0,1,.26-2.25.646.646,0,0,0-.44-.77.63.63,0,0,0-.78.44Z"/><path d="M197.71,314.76l-.03-.18c0-.02-.03-.18-.01-.09s-.01-.1-.01-.12c-.01-.05-.01-.1-.02-.15-.02-.21-.03-.43-.04-.64a9.575,9.575,0,0,1,.06-1.31.611.611,0,0,0-.62-.62.637.637,0,0,0-.62.62,10.249,10.249,0,0,0,.1,2.82.641.641,0,0,0,.77.44.667.667,0,0,0,.42-.77Z"/><path d="M197.59,314.93v-.28a.471.471,0,0,0-.05-.24.575.575,0,0,0-.33-.33.387.387,0,0,0-.24-.05c-.06.01-.11.01-.17.02a.605.605,0,0,0-.28.16,1.469,1.469,0,0,0-.1.13.7.7,0,0,0-.09.32v.28a.471.471,0,0,0,.05.24.575.575,0,0,0,.33.33.387.387,0,0,0,.24.05c.06-.01.11-.01.17-.02a.605.605,0,0,0,.28-.16,1.469,1.469,0,0,0,.1-.13.648.648,0,0,0,.09-.32Z"/><path d="M196.79,315.23a7.142,7.142,0,0,0,2.05.49.646.646,0,0,0,.44-.18.62.62,0,0,0,.18-.44.647.647,0,0,0-.18-.44.666.666,0,0,0-.44-.18l-.28-.03c.06.01.11.01.17.02a6.331,6.331,0,0,1-1.6-.44.618.618,0,0,0-.48.06.667.667,0,0,0-.29.37.618.618,0,0,0,.06.48,1.469,1.469,0,0,1,.1.13.609.609,0,0,0,.27.16Z"/><path d="M219.47,315.58a.625.625,0,0,0,0-1.25.625.625,0,0,0,0,1.25Z"/><path d="M198.63,315.72c.21.03.42.06.64.1a.427.427,0,0,0,.25.01.475.475,0,0,0,.23-.07.548.548,0,0,0,.18-.16.427.427,0,0,0,.11-.21c.01-.06.01-.11.02-.17a.62.62,0,0,0-.09-.32,1.469,1.469,0,0,1-.1-.13.606.606,0,0,0-.28-.16c-.21-.03-.42-.06-.64-.1a.427.427,0,0,0-.25-.01.475.475,0,0,0-.23.07.548.548,0,0,0-.18.16.427.427,0,0,0-.11.21c-.01.06-.01.11-.02.17a.62.62,0,0,0,.09.32,1.469,1.469,0,0,1,.1.13.724.724,0,0,0,.28.16Z"/><path d="M197.66,312.38c.02-1.31.08-2.63.19-3.94a.617.617,0,0,0-.62-.62.637.637,0,0,0-.62.62c-.11,1.31-.17,2.62-.19,3.94a.62.62,0,0,0,1.24,0Z"/><path d="M197.97,308.93c.5.25,1,.49,1.5.74a.664.664,0,0,0,.48.06.627.627,0,0,0,.37-.29.583.583,0,0,0,.06-.48.6.6,0,0,0-.29-.37c-.5-.25-1-.49-1.5-.74a.664.664,0,0,0-.48-.06.627.627,0,0,0-.37.29.583.583,0,0,0-.06.48.635.635,0,0,0,.29.37Z"/><path d="M198.84,309.5a1.746,1.746,0,0,1,.29.18,1.469,1.469,0,0,0-.13-.1,1.287,1.287,0,0,1,.21.19.533.533,0,0,0,.2.13.387.387,0,0,0,.24.05.471.471,0,0,0,.24-.05.533.533,0,0,0,.2-.13,1.469,1.469,0,0,0,.1-.13.7.7,0,0,0,.09-.32c-.01-.06-.01-.11-.02-.17a.606.606,0,0,0-.16-.28,2.673,2.673,0,0,0-.36-.31c-.09-.06-.18-.12-.27-.17a.389.389,0,0,0-.23-.07.555.555,0,0,0-.46.12.4.4,0,0,0-.16.18l-.06.15a.616.616,0,0,0,0,.33l.06.15a.6.6,0,0,0,.22.25Z"/><path d="M210.05,312c1.22.01,2.45.03,3.67.04a.623.623,0,0,0,.62-.62.63.63,0,0,0-.62-.62c-1.22-.01-2.45-.03-3.67-.04a.623.623,0,0,0-.62.62.63.63,0,0,0,.62.62Z" fill="#5a3a1b"/><path d="M211.6,312.18a7.346,7.346,0,0,1,1.24.04.6.6,0,0,0,.44-.18.62.62,0,0,0,.18-.44.647.647,0,0,0-.18-.44,1.469,1.469,0,0,0-.13-.1.7.7,0,0,0-.32-.09,7.315,7.315,0,0,0-1.24-.04.647.647,0,0,0-.44.18.62.62,0,0,0-.18.44.647.647,0,0,0,.18.44.725.725,0,0,0,.45.19Z" fill="#5a3a1b"/><path d="M214.15,312.09c1.16.02,2.31.01,3.47-.01a.62.62,0,0,0,0-1.24c-1.16.03-2.31.03-3.47.01a.623.623,0,0,0-.62.62.63.63,0,0,0,.62.62Z" fill="#5a3a1b"/><path d="M200.71,311.31a7.614,7.614,0,0,1,1.72.1c.58.07,1.16.15,1.74.22a.617.617,0,0,0,.62-.62.644.644,0,0,0-.62-.62c-.58-.07-1.16-.15-1.74-.22a7.648,7.648,0,0,0-1.72-.1.63.63,0,0,0-.62.62.637.637,0,0,0,.62.62Z" fill="#5a3a1b"/><path d="M203.03,311.65a3.391,3.391,0,0,1,.45.02c-.06-.01-.11-.01-.17-.02a2.564,2.564,0,0,1,.27.05.664.664,0,0,0,.48-.06.548.548,0,0,0,.18-.16.427.427,0,0,0,.11-.21.618.618,0,0,0-.06-.48.668.668,0,0,0-.37-.29,3.8,3.8,0,0,0-.89-.1.647.647,0,0,0-.44.18.533.533,0,0,0-.13.2.388.388,0,0,0-.05.24.647.647,0,0,0,.18.44.562.562,0,0,0,.44.19Z" fill="#5a3a1b"/><path d="M206.42,312.14a20.331,20.331,0,0,1,2.47.05.617.617,0,0,0,.62-.62.637.637,0,0,0-.62-.62,18.517,18.517,0,0,0-2.47-.05.623.623,0,0,0-.62.62.63.63,0,0,0,.62.62Z" fill="#5a3a1b"/><path d="M207.57,311.91c.72.05,1.43.12,2.15.21a.6.6,0,0,0,.44-.18.62.62,0,0,0,.18-.44.647.647,0,0,0-.18-.44.72.72,0,0,0-.44-.18c-.71-.09-1.43-.16-2.15-.21a.617.617,0,0,0-.62.62.63.63,0,0,0,.62.62Z" fill="#5a3a1b"/><path d="M217.3,311.93c.48-.31.95-.62,1.43-.93a.624.624,0,0,0-.14-1.14.618.618,0,0,0-.48.06c-.48.31-.95.62-1.43.93a.623.623,0,1,0,.62,1.08Z" fill="#5a3a1b"/><path d="M217.98,310.48h-.02c-.06.01-.12.01-.17.02h-.01a.037.037,0,0,0-.03.01c-.06.02-.12.05-.18.07-.01,0-.02.01-.03.01l-.01.01h-.01l-.13.1c-.01.01-.02.01-.02.02l-.01.01h0c-.03.04-.07.09-.1.13-.01.01-.01.02-.02.03a.389.389,0,0,0-.07.23.555.555,0,0,0,.12.46.4.4,0,0,0,.18.16l.15.06a.616.616,0,0,0,.33,0l.15-.06a.661.661,0,0,0,.22-.22c.01-.01.01-.02.02-.03a1.469,1.469,0,0,0-.1.13c.01-.02.03-.03.04-.04a1.469,1.469,0,0,1-.13.1c.02-.01.03-.02.05-.03l-.15.06c.02-.01.04-.01.06-.02-.06.01-.11.01-.17.02h.02a.471.471,0,0,0,.24-.05.575.575,0,0,0,.33-.33.388.388,0,0,0,.05-.24c-.01-.06-.01-.11-.02-.17a.606.606,0,0,0-.16-.28,1.469,1.469,0,0,0-.13-.1.738.738,0,0,0-.29-.06Z" fill="#5a3a1b"/><path d="M218.1,310.48h-.36a.471.471,0,0,0-.24.05.575.575,0,0,0-.33.33.388.388,0,0,0-.05.24c.01.06.01.11.02.17a.606.606,0,0,0,.16.28,1.469,1.469,0,0,0,.13.1.7.7,0,0,0,.32.09h.36a.471.471,0,0,0,.24-.05.575.575,0,0,0,.33-.33.388.388,0,0,0,.05-.24c-.01-.06-.01-.11-.02-.17a.606.606,0,0,0-.16-.28,1.469,1.469,0,0,0-.13-.1.7.7,0,0,0-.32-.09Z" fill="#5a3a1b"/><path d="M217.58,311.97a.625.625,0,0,0,0-1.25.625.625,0,0,0,0,1.25Z" fill="#5a3a1b"/><path d="M218.55,311.16c.05-.04.1-.09.15-.13-.12.09.05-.04.07-.05.09-.07.19-.13.29-.2.22-.14.44-.27.66-.4.47-.27.95-.54,1.43-.81a.628.628,0,1,0-.64-1.08,18.663,18.663,0,0,0-2.86,1.77.628.628,0,0,0,0,.88.634.634,0,0,0,.9.02Z" fill="#5a3a1b"/><path d="M221.02,309.59a.625.625,0,0,0,0-1.25.625.625,0,0,0,0,1.25Z" fill="#5a3a1b"/><path d="M198.11,315.65c.76,1.94,1.51,3.88,2.27,5.81a.628.628,0,0,0,1.21-.33.9.9,0,0,0-.48-.64.651.651,0,0,0-.86.22.642.642,0,0,0,.22.86c-.09-.2-.12-.24-.09-.1.4-.11.8-.22,1.21-.33-.76-1.94-1.51-3.88-2.27-5.81a.655.655,0,0,0-.77-.44.618.618,0,0,0-.44.76Z"/><path d="M199.31,318.92a17.849,17.849,0,0,1,1.06,3.71,18.734,18.734,0,0,0,.82,3.69.655.655,0,0,0,.77.44.633.633,0,0,0,.44-.77,18.421,18.421,0,0,1-.82-3.69,17.507,17.507,0,0,0-1.06-3.71.66.66,0,0,0-.77-.44.634.634,0,0,0-.44.77Z"/><path d="M218.77,315.08c-.9,3.4-1.65,6.83-2.6,10.22a.627.627,0,0,0,1.21.33c.95-3.38,1.7-6.82,2.6-10.22a.628.628,0,0,0-1.21-.33Z"/><path d="M209.67,290.86c-.02-.01-.05-.01-.07-.02l-.66-.09h-.09c-.12.01-.23.03-.35.05s-.23.03-.34.05a.186.186,0,0,0-.07.02c-.01,0-.02.01-.03.01-.2.08-.4.17-.6.25a.01.01,0,0,0-.01.01.209.209,0,0,0-.06.04,3.261,3.261,0,0,0-.55.43l-.02.02c-.07.09-.14.18-.2.26s-.14.17-.2.26a2.433,2.433,0,0,0-.34,1.26,2.532,2.532,0,0,0,.34,1.26,2.5,2.5,0,0,0,.9.9,2.433,2.433,0,0,0,1.26.34.277.277,0,0,1,.09.01l-.66-.09c.05.01.09.01.14.02.17.02.48.08.72.1h.08l.66-.09a.037.037,0,0,0,.03-.01,2.562,2.562,0,0,0,.64-.27,2.448,2.448,0,0,0,.54-.42c.07-.08.13-.17.2-.25a2.558,2.558,0,0,0,.2-.26c0-.01.01-.01.01-.02.08-.2.17-.4.25-.6a2.634,2.634,0,0,0,0-1.42,3.044,3.044,0,0,0-.28-.64,2.651,2.651,0,0,0-2.28-1.3,2.565,2.565,0,0,0-1.35.37,2.758,2.758,0,0,0-.95.97,2.581,2.581,0,0,0-.35,1.36,2.539,2.539,0,0,0,.38,1.34c.07.08.13.17.2.25a2.563,2.563,0,0,0,.2.26c.15.14.58.45.52.41a2.458,2.458,0,0,0,.65.28c.01,0,.02.01.03.01h.01l.66.09h.06a2.742,2.742,0,0,0,1.37-.38l.01-.01.51-.39.03-.03.01-.01.39-.51c.01-.01.01-.02.02-.04a.01.01,0,0,1,.01-.01c.08-.2.17-.4.25-.6,0-.01.01-.03.01-.04a2.218,2.218,0,0,0,.09-.73,2.7,2.7,0,0,0-.37-1.36,2.763,2.763,0,0,0-.98-1c-.02-.01-.04-.03-.06-.04a4.057,4.057,0,0,0-.65-.27c-.02-.01-.05-.01-.07-.02a6.1,6.1,0,0,0-.73-.1h-.08c-.24.02-.48.06-.72.1a3.262,3.262,0,0,0-.74.29,2.936,2.936,0,0,0-.62.46c-.02.02-.04.03-.05.05a3.957,3.957,0,0,0-.43.56,2.279,2.279,0,0,0-.15.35,2.533,2.533,0,0,0-.14.35,4.305,4.305,0,0,0-.1.72v.08c-.01-.16.04.51.1.72.03.11.12.28.13.32s.09.22.14.32a4.021,4.021,0,0,0,.42.55,1.662,1.662,0,0,0,.3.24,2.083,2.083,0,0,0,.31.23,5.237,5.237,0,0,0,.65.27.235.235,0,0,0,.08.02c.24.05.58.08.75.1a.969.969,0,0,0,.17.01,3.857,3.857,0,0,0,.83-.11l.09-.03a4.156,4.156,0,0,0,.67-.29,4.813,4.813,0,0,0,.57-.44l.06-.06a2.927,2.927,0,0,0,.71-1.23,2.782,2.782,0,0,0,.01-1.46.037.037,0,0,0-.01-.03.035.035,0,0,0-.01-.02c-.08-.2-.17-.4-.25-.6a3.956,3.956,0,0,0-.42-.56,1.912,1.912,0,0,0-.61-.48,2.66,2.66,0,0,0-1.37-.37,2.7,2.7,0,0,0-1.38.37,2.571,2.571,0,0,0-.89,3.42l.39.51a2.5,2.5,0,0,0,1.1.64l.66.09a2.532,2.532,0,0,0,1.26-.34c.01,0,.01-.01.02-.01-.2.08-.4.17-.6.25a.09.09,0,0,1,.05-.01l-.66.09h.06l-.66-.09a.186.186,0,0,1,.07.02c-.2-.08-.4-.17-.6-.25.03.01.05.03.08.04l-.51-.39c.02.02.04.03.05.05l-.39-.51c.01.02.02.03.03.05-.08-.2-.17-.4-.25-.6.01.02.01.04.02.06l-.09-.66v.07l.09-.66a.188.188,0,0,1-.02.08c.08-.2.17-.4.25-.6a.4.4,0,0,1-.05.09l.39-.51a.647.647,0,0,1-.08.09l.51-.39a.238.238,0,0,1-.11.06c.2-.08.4-.17.6-.25a.938.938,0,0,1-.16.04l.66-.09a1.129,1.129,0,0,1-.26,0l.66.09a.592.592,0,0,1-.19-.05c.2.08.4.17.6.25a.218.218,0,0,1-.08-.05l.51.39-.05-.05.39.51a.161.161,0,0,1-.04-.07c.08.2.17.4.25.6a.235.235,0,0,1-.02-.08l.09.66v-.09l-.09.66a.292.292,0,0,1,.02-.09c-.08.2-.17.4-.25.6a.217.217,0,0,1,.05-.08l-.39.51a.463.463,0,0,1,.07-.07l-.51.39a.473.473,0,0,1,.12-.07c-.2.08-.4.17-.6.25a.471.471,0,0,1,.16-.04l-.66.09a.485.485,0,0,1,.17,0l-.66-.09.12.03c-.2-.08-.4-.17-.6-.25a.406.406,0,0,1,.09.05l-.51-.39c.02.02.04.03.05.05l-.39-.51.03.06c-.08-.2-.17-.4-.25-.6a.64.64,0,0,1,.02.07l-.09-.66v.07l.09-.66a.433.433,0,0,1-.01.05c.08-.2.17-.4.25-.6-.01.02-.02.03-.03.05l.39-.51c-.01.01-.02.03-.03.04l.51-.39c-.02.01-.03.02-.05.03.2-.08.4-.17.6-.25-.02.01-.04.01-.06.02l.66-.09h-.06l.66.09c-.02,0-.03-.01-.05-.01.2.08.4.17.6.25-.02-.01-.03-.01-.04-.02l.51.39c-.01-.01-.02-.02-.03-.02l.39.51a.052.052,0,0,1-.02-.04c.08.2.17.4.25.6a.06.06,0,0,1-.01-.04l.09.66v-.06l-.09.66c0-.01.01-.03.01-.04-.08.2-.17.4-.25.6.01-.01.01-.03.02-.04l-.39.51.03-.03-.51.39c.01-.01.02-.01.03-.02-.2.08-.4.17-.6.25.01,0,.02-.01.03-.01l-.66.09h.04l-.66-.09c.02,0,.03.01.05.01-.2-.08-.4-.17-.6-.25.01.01.02.01.03.02l-.51-.39.03.03-.39-.51a.076.076,0,0,1,.02.04c-.08-.2-.17-.4-.25-.6,0,.01.01.02.01.03l-.09-.66v.03l.09-.66c0,.01,0,.01-.01.02.08-.2.17-.4.25-.6-.01.01-.01.02-.02.03l.39-.51c-.01.01-.01.02-.02.02l.51-.39a.052.052,0,0,1-.04.02c.2-.08.4-.17.6-.25a.06.06,0,0,1-.04.01l.66-.09a.655.655,0,0,1-.14,0l.66.09c-.04-.01-.08-.01-.12-.02-.23-.03-.47-.07-.71-.09h-.07c.72,1.25,1.44,2.51,2.16,3.76l.01-.01-.39.51.06-.06-.51.39a.35.35,0,0,1,.08-.05c-.2.08-.4.17-.6.25l.11-.03-.66.09h.1l-.66-.09a.186.186,0,0,1,.07.02,1.886,1.886,0,0,0,1,.04,2.264,2.264,0,0,0,1.63-.94,1.89,1.89,0,0,0,.45-.85l.09-.66a2.532,2.532,0,0,0-.34-1.26l-.39-.51a3.23,3.23,0,0,0-1.15-.62Z" fill="#d5308a"/><path d="M207.06,292.49c.35.12.69.24,1.04.36.26.09.59.26.87.15a.417.417,0,0,0,.12-.66,1.175,1.175,0,0,0-.87-.28,4.476,4.476,0,0,0-1.21.11.128.128,0,0,0,.03.25,1.331,1.331,0,0,1,.57.22c.19.09.38.18.57.28.07.04.13.07.07.15a.336.336,0,0,1-.16.1.52.52,0,0,1-.4-.07,1.2,1.2,0,0,1-.34-.37l-.12-.21c-.02-.04-.05-.08-.07-.13-.01-.02-.02-.03-.03-.05-.01-.04-.02-.04-.02-.02s0,.02.01-.01a1.215,1.215,0,0,0,.15-.17,1,1,0,0,1,.2-.16,1.638,1.638,0,0,1,.98-.28c.26.01.18.27.11.43-.03.06.03.14.09.15a.126.126,0,0,0,.15-.09.555.555,0,0,0-.05-.64.784.784,0,0,0-.67-.08,1.82,1.82,0,0,0-1.15.67.229.229,0,0,0-.06.27,2.6,2.6,0,0,0,.21.36,1.536,1.536,0,0,0,.45.53.773.773,0,0,0,.59.12.488.488,0,0,0,.4-.41.332.332,0,0,0-.19-.29c-.13-.08-.28-.14-.41-.21s-.29-.14-.43-.21a.874.874,0,0,0-.45-.13c.01.08.02.16.03.25a4.251,4.251,0,0,1,1.12-.1c.21.01.76.01.75.34-.01.3-.63.01-.75-.03-.36-.13-.72-.25-1.08-.38-.14-.06-.2.18-.05.24Z" fill="#8f2c61"/><path d="M208.32,293.42a2.494,2.494,0,0,1,.32.63c.04.16.08.46-.11.55a.06.06,0,0,1-.04.01h-.02c-.01,0,0,0,.01.02a.433.433,0,0,0-.01-.16c-.01-.13-.02-.25-.03-.38a1.214,1.214,0,0,1,.11-.65c.08-.14-.14-.27-.22-.13a1.362,1.362,0,0,0-.15.66c0,.13.01.26.02.39,0,.06.01.13.01.19a.5.5,0,0,0,.02.17c.09.25.42.14.54-.01a.817.817,0,0,0,.1-.68,2.886,2.886,0,0,0-.35-.73c-.07-.14-.28-.02-.2.12Z" fill="#8f2c61"/><path d="M210.07,293.2a1.166,1.166,0,0,1-.91-.53c-.06-.1-.15-.26-.08-.38.13-.22.42.24.47.34a5.8,5.8,0,0,0,.33.66c.09.13.3.01.22-.13a3.97,3.97,0,0,1-.33-.65c-.05-.13-.13-.47.1-.48.09-.01.11.09.11.16.01.12.01.24.02.37q.015.4,0,.81l.12-.12a1.279,1.279,0,0,1-.51-.22,5.09,5.09,0,0,0-.54-.22c-.3-.09-.76-.08-.84.3a.454.454,0,0,0,.17.42,1.082,1.082,0,0,0,.52.18,3.273,3.273,0,0,0,1.21-.07,2.17,2.17,0,0,0-.07-.24,2.842,2.842,0,0,1-.57.1c-.19.01-.38-.01-.57,0a.757.757,0,0,0-.72.46.118.118,0,0,0,.09.15,1.371,1.371,0,0,0,.99-.14,6.833,6.833,0,0,0,.96-.52c.13-.09.01-.31-.13-.22a7.176,7.176,0,0,1-.86.47,1.245,1.245,0,0,1-.9.16l.09.15c.09-.28.47-.29.71-.28a2.957,2.957,0,0,0,.98-.11.125.125,0,0,0-.07-.24,2.939,2.939,0,0,1-.98.08,1.446,1.446,0,0,1-.46-.09c-.1-.05-.22-.16-.14-.28.17-.24.58-.04.78.05a3.42,3.42,0,0,1,.43.21.837.837,0,0,0,.4.14.122.122,0,0,0,.12-.12c.01-.36,0-.73-.02-1.09a.64.64,0,0,0-.1-.38.325.325,0,0,0-.32-.11.489.489,0,0,0-.34.61,3.05,3.05,0,0,0,.41.9c.07-.04.14-.08.22-.13-.14-.21-.22-.45-.34-.67s-.29-.46-.53-.5c-.3-.05-.46.26-.4.52a1.176,1.176,0,0,0,.44.63,1.388,1.388,0,0,0,.81.3c.19,0,.19-.25.03-.25Z" fill="#8f2c61"/><path d="M199.24,312.96c2.69.28,5.38.51,8.07.75a2.567,2.567,0,0,0,1.77-.73,2.511,2.511,0,0,0,0-3.54,2.791,2.791,0,0,0-1.77-.73c-2.69-.24-5.38-.47-8.07-.75a2.505,2.505,0,0,0-1.77.73,2.511,2.511,0,0,0,0,3.54,2.927,2.927,0,0,0,1.77.73Z" fill="#6e4e2f"/><path d="M206.22,313.61l6.67.09a2.52,2.52,0,0,0,2.5-2.5,2.547,2.547,0,0,0-2.5-2.5l-6.67-.09a2.52,2.52,0,0,0-2.5,2.5,2.547,2.547,0,0,0,2.5,2.5Z" fill="#6e4e2f"/><path d="M215.02,308.73h-.58a1.861,1.861,0,0,0-.96.22,1.769,1.769,0,0,0-.8.52,1.915,1.915,0,0,0-.52.8,1.884,1.884,0,0,0-.22.96l.09.66a2.5,2.5,0,0,0,.64,1.1l.51.39a2.433,2.433,0,0,0,1.26.34h.58a1.861,1.861,0,0,0,.96-.22,1.769,1.769,0,0,0,.8-.52,1.915,1.915,0,0,0,.52-.8,1.884,1.884,0,0,0,.22-.96l-.09-.66a2.5,2.5,0,0,0-.64-1.1l-.51-.39a2.532,2.532,0,0,0-1.26-.34Z" fill="#6e4e2f"/><path d="M240.38,312.7c-.04,1.02-.09,2.05-.03,3.07a15.222,15.222,0,0,0,.52,2.99.384.384,0,0,0,.63.17.8.8,0,0,0,.19-.35c.09-.47-.64-.67-.72-.2,0,.01,0,.01.01.02.21.06.42.11.63.17a14.292,14.292,0,0,1-.5-2.91c-.05-.98-.01-1.97.03-2.95a.38.38,0,0,0-.76-.01Z" fill="#5fb379"/><path d="M239.35,311.13q-.225,3.465-.17,6.92a.375.375,0,0,0,.75,0q-.06-3.465.17-6.92c.03-.49-.72-.48-.75,0Z" fill="#5fb379"/><path d="M235.63,311.58a35.243,35.243,0,0,0-1.3,6.82c-.04.48.71.48.75,0a34.732,34.732,0,0,1,1.28-6.62.379.379,0,0,0-.73-.2Z" fill="#5fb379"/><path d="M237.04,316.84a7.715,7.715,0,0,0-.09,1.52.38.38,0,0,0,.76,0c-.01-.23-.01-.46,0-.7.01-.11.01-.22.02-.33.01-.06.01-.11.02-.17a.127.127,0,0,1,.01-.06q-.015.075,0,.03c0-.03.01-.06.01-.1a.377.377,0,0,0-.26-.46c-.19-.03-.44.06-.47.27Z" fill="#5fb379"/><path d="M227.66,318.77a8.025,8.025,0,0,0,.37,3.04,2.017,2.017,0,0,0,1.34,1.2c1.74.69,3.92.46,5.75.53,2.21.08,4.42.17,6.63.25,1.54.06,3.26.2,4.45-.96.35-.34-.18-.87-.53-.53-1.1,1.06-2.88.78-4.27.72-1.8-.07-3.6-.14-5.41-.2-1.65-.06-3.33-.04-4.97-.21-.78-.08-1.85-.23-2.27-1a5.6,5.6,0,0,1-.34-2.84c.03-.49-.72-.48-.75,0Z"/><path d="M246.64,322.69a9.886,9.886,0,0,0,.58-3.19.375.375,0,0,0-.75,0,9.577,9.577,0,0,1-.55,2.99.374.374,0,0,0,.72.2Z"/><path d="M247.17,319.15c-.98-.83-2.51-.6-3.71-.63l-5.12-.15-10.44-.3a.375.375,0,0,0,0,.75l9.3.27c1.52.04,3.04.09,4.55.13.76.02,1.52.04,2.28.07s1.99-.14,2.61.39c.36.32.89-.21.53-.53Z"/><path d="M229.51,323.2c.45,1.3.91,2.6,1.36,3.9.23.65.45,1.3.68,1.95a6.946,6.946,0,0,0,.58,1.56,4.927,4.927,0,0,0,2.72,1.58,15.756,15.756,0,0,0,3.35.42c2.07.08,3.85-.54,4.81-2.48a21.347,21.347,0,0,0,2.14-6.79c.06-.48-.7-.47-.75,0a21.106,21.106,0,0,1-1.94,6.2,3.62,3.62,0,0,1-1.88,2.02,6.3,6.3,0,0,1-2.73.28,14.465,14.465,0,0,1-2.93-.41,4.778,4.778,0,0,1-1.4-.63,2.369,2.369,0,0,1-1.06-1.4c-.74-2.13-1.49-4.27-2.23-6.4-.16-.45-.88-.26-.72.2Z"/><path d="M232.95,318.49c-2.78.7-1.85-.7-2.78.7-.58.88-2.06.66-2.3.71-.14.03.16.16,1.37.69l3.24,1.41h10.03l2.16-.99,1.39-.77-1.39-1.76h-2l-.81-18.24h1.42l1.88-.35,2.2-.77,2-1.48.84-1,.84-1.65.26-2.07-.26-1.36-.97-.83-1.1-.3h-1.23l-1.03.41-.65.77-.39,1.59-.58,1.06-.71.77-1.1.41-1.94-.24.13-13.99-.58-4.43-1.32-2.77-1.79-.53h-1.42l-1.55.71-1.23,1.71-.32,3.42-.39,8.79.39,3.13-2.07-.12-1.55-1.24-.67-1.24-.43-1.83-.39-1.71-1.1-.71-.58-.3-1.94.06-1.62.18-.97.71-.58,1.48v2.07l.52,2.48.84,2.12,1.03,1.77,1.42,1.3,2.52,1.47,2.07.76h3.43l-.06,21.38,2.72.71,4.33-.12,1.94-.3c.02-.47.03-.93.04-1.4a139.782,139.782,0,0,0-.73-18.25" fill="#2c653c" stroke="#000" stroke-miterlimit="10" stroke-width="0.15"/><path d="M246.06,318.87l.68.39-.46,3.22-2.93,1.22-2.94.46-4.08.16-5.28-.73-1-.53-1.47-.77-.7-3.77" fill="#382517" stroke="#000" stroke-miterlimit="10" stroke-width="0.15"/><path d="M230.05,323.06l2.26,7.34,2.02,1.27,2.98.38h2.3l1.89-.84,1.05-.65,2.34-7.5" fill="#5a3a1b" stroke="#000" stroke-miterlimit="10" stroke-width="0.15"/><path d="M234.62,274.46a24.8,24.8,0,0,0-.83,7.77c-.01,2.85.06,5.69.19,8.54.02.48.77.48.75,0q-.2-4.11-.19-8.22a25.007,25.007,0,0,1,.8-7.9c.16-.45-.57-.65-.72-.19Z" fill="#5fb379"/><path d="M234.59,274.51c.99,2.5.74,5.37.74,8.01,0,2.78-.04,5.56-.1,8.33a.375.375,0,0,0,.75,0c.07-2.88.11-5.77.1-8.65,0-2.61.21-5.41-.77-7.88-.17-.45-.9-.26-.72.19Z" fill="#5fb379"/><path d="M236.58,273.57a66.855,66.855,0,0,0,.03,16.96c.05.48.8.48.75,0a66.208,66.208,0,0,1-.06-16.76c.07-.47-.65-.67-.72-.2Z" fill="#5fb379"/><path d="M236.52,273.64c.73,5.82,1.05,11.66,1.35,17.51.03.48.78.48.75,0-.31-5.85-.62-11.69-1.35-17.51-.06-.47-.81-.48-.75,0Z" fill="#5fb379"/><path d="M238.48,273.98q-.18,4.185.04,8.37c.16,2.79.62,5.58.6,8.38a.375.375,0,0,0,.75,0c.01-2.8-.44-5.59-.6-8.38a80.58,80.58,0,0,1-.04-8.37c.02-.48-.73-.48-.75,0Z" fill="#5fb379"/><path d="M238.46,274.32c.31,1.35.75,2.66,1.11,4.01a18.234,18.234,0,0,1,.54,4.41c.04,2.86.01,5.72-.07,8.58a.375.375,0,0,0,.75,0c.08-2.97.12-5.94.06-8.91a18.266,18.266,0,0,0-.48-3.97c-.36-1.45-.85-2.86-1.18-4.31a.377.377,0,0,0-.73.19Z" fill="#5fb379"/><path d="M240.06,291c-.47,8.88.29,17.79.54,26.67a.375.375,0,0,0,.75,0c-.25-8.88-1.02-17.78-.54-26.67.03-.48-.72-.48-.75,0Z" fill="#5fb379"/><path d="M239.11,290.7a19.859,19.859,0,0,1-.62,5.53,44.405,44.405,0,0,0-.64,4.73,7.878,7.878,0,0,0,.34,3.89,8.753,8.753,0,0,1,.51,2.15,60.032,60.032,0,0,1,.47,11.05c-.02.48.73.48.75,0a61.992,61.992,0,0,0-.46-10.98,12.873,12.873,0,0,0-.36-1.95c-.16-.52-.44-.98-.55-1.51a9.738,9.738,0,0,1,.05-2.64,48.06,48.06,0,0,1,.8-5.47,16.8,16.8,0,0,0,.45-4.79c-.03-.49-.78-.49-.74-.01Z" fill="#5fb379"/><path d="M237.81,290.7a13.673,13.673,0,0,0,.77,5.19c.16.45.88.26.72-.2a13.022,13.022,0,0,1-.74-4.99c.03-.49-.72-.48-.75,0Z" fill="#5fb379"/><path d="M236.34,289.17c-.28,5.23-.76,10.49-.71,15.73.05,4.53,1.23,8.94,1.32,13.46a.375.375,0,0,0,.75,0c-.09-4.52-1.28-8.94-1.32-13.46-.05-5.24.43-10.5.71-15.73.02-.48-.73-.48-.75,0Z" fill="#5fb379"/><path d="M234.53,297.53c.15,3.33-.95,6.64-.33,9.96.15.81.4,1.61.53,2.42a24.259,24.259,0,0,1,.21,2.96c.09,1.82.18,3.65.27,5.47.02.48.77.48.75,0-.17-3.43-.1-6.94-.88-10.3-.82-3.51.36-6.97.2-10.51-.02-.48-.77-.48-.75,0Z" fill="#5fb379"/><path d="M233.96,292.06a7.481,7.481,0,0,0,.29,2.7,7.116,7.116,0,0,1,.3,2.67.387.387,0,0,0,.26.46.374.374,0,0,0,.46-.26,7.111,7.111,0,0,0-.24-2.79,7.714,7.714,0,0,1-.32-2.78c.03-.2-.19-.37-.38-.38a.385.385,0,0,0-.37.38Z" fill="#5fb379"/><path d="M235.57,294.34c.12-.76.26-1.52.34-2.29a3.6,3.6,0,0,0-.08-1.09,1.1,1.1,0,0,1,.15-.9c.28-.4-.37-.77-.65-.38a1.609,1.609,0,0,0-.29,1,10.558,10.558,0,0,1,.13,1.13,8.9,8.9,0,0,1-.15,1.14l-.18,1.2a.387.387,0,0,0,.26.46.378.378,0,0,0,.47-.27Z" fill="#5fb379"/><path d="M236.81,289.16a.375.375,0,0,0,0-.75.375.375,0,0,0,0,.75Z" fill="#5fb379"/><path d="M236.45,288.69a2.76,2.76,0,0,0-.08.27.257.257,0,0,0-.01.15.326.326,0,0,0,.04.14.346.346,0,0,0,.1.11.329.329,0,0,0,.13.07c.03,0,.07.01.1.01a.414.414,0,0,0,.19-.05c.03-.02.05-.04.08-.06a.367.367,0,0,0,.1-.17,2.76,2.76,0,0,0,.08-.27.257.257,0,0,0,.01-.15.326.326,0,0,0-.04-.14.346.346,0,0,0-.1-.11.329.329,0,0,0-.13-.07c-.03,0-.07-.01-.1-.01a.414.414,0,0,0-.19.05c-.03.02-.05.04-.08.06a.367.367,0,0,0-.1.17Z" fill="#5fb379"/><path d="M236.62,290.37l-.21.69a.372.372,0,0,0,.55.42.414.414,0,0,0,.17-.22l.21-.69a.372.372,0,0,0-.55-.42.415.415,0,0,0-.17.22Z" fill="#5fb379"/><path d="M236.65,290.47a4.29,4.29,0,0,0-.21,1.23,3.306,3.306,0,0,1-.21,1.11.379.379,0,0,0,.26.46.387.387,0,0,0,.46-.26,3.94,3.94,0,0,0,.23-1.23,3.607,3.607,0,0,1,.19-1.12.379.379,0,0,0-.26-.46.4.4,0,0,0-.46.27Z" fill="#5fb379"/><path d="M226.14,284.46a7.585,7.585,0,0,0,1.83,6.57,8.1,8.1,0,0,0,6.44,2.5c.48-.03.48-.78,0-.75a7.394,7.394,0,0,1-5.82-2.18,6.792,6.792,0,0,1-1.73-5.94c.1-.47-.63-.67-.72-.2Z" fill="#5fb379"/><path d="M224.34,284.35a6.192,6.192,0,0,0-.58,4.16,7.024,7.024,0,0,0,2.18,3.49,15.826,15.826,0,0,0,8.37,3.46c.47.07.68-.66.2-.72a16,16,0,0,1-7.64-2.93,6.66,6.66,0,0,1-2.24-3,5.274,5.274,0,0,1,.36-4.08c.21-.44-.43-.82-.65-.38Z" fill="#5fb379"/><path d="M223.03,284.55c-1.68,2.93-.64,6.5,1.7,8.73,2.6,2.49,6.23,3.33,9.71,3.63.48.04.48-.71,0-.75-3.16-.27-6.47-1-8.91-3.16-2.26-2-3.44-5.3-1.85-8.08a.374.374,0,0,0-.65-.37Z" fill="#5fb379"/><path d="M240.53,296.57a15.174,15.174,0,0,1,3.28.35,3.837,3.837,0,0,0,2.75-.7c1.7-1.27,2.04-3.43,2.05-5.42a.375.375,0,0,0-.75,0c-.01,1.77-.25,3.83-1.86,4.9-1.68,1.12-3.64-.1-5.47.11-.47.06-.48.81,0,.76Z" fill="#5fb379"/><path d="M249.13,290.86a32.384,32.384,0,0,1-.91,3.2,3.934,3.934,0,0,1-1.56,2.36,12.057,12.057,0,0,1-6.27,1.34c-.48-.02-.48.73,0,.75a14.348,14.348,0,0,0,3.58-.33,10.3,10.3,0,0,0,3.19-1.18,4.338,4.338,0,0,0,1.63-2.3,28.809,28.809,0,0,0,1.06-3.62c.11-.49-.61-.69-.72-.22Z" fill="#5fb379"/><path d="M240.46,299.55a12.859,12.859,0,0,0,4.06,0,8.337,8.337,0,0,0,3.44-1.84c1.89-1.49,3.67-3.77,2.88-6.32-.14-.46-.87-.26-.72.2.74,2.38-1.13,4.4-2.87,5.73a7.065,7.065,0,0,1-3.1,1.53,13.425,13.425,0,0,1-3.69-.06c-.47-.04-.47.71,0,.76Z" fill="#5fb379"/><path d="M236.57,275.19a.375.375,0,0,0,0-.75.375.375,0,0,0,0,.75Z" fill="#5a3a1b"/><path d="M236.96,274.63c-.13-.16-.27-.32-.4-.48a.255.255,0,0,0-.12-.08.342.342,0,0,0-.28,0,.255.255,0,0,0-.12.08.386.386,0,0,0-.11.27c0,.03.01.07.01.1a.425.425,0,0,0,.1.17c.13.16.27.32.4.48a.255.255,0,0,0,.12.08.342.342,0,0,0,.28,0,.255.255,0,0,0,.12-.08.386.386,0,0,0,.11-.27c0-.03-.01-.07-.01-.1a.323.323,0,0,0-.1-.17Z" fill="#5a3a1b"/><path d="M236.71,274.57h-.28a.32.32,0,0,0-.14.03.368.368,0,0,0-.2.2.319.319,0,0,0-.03.14c0,.03.01.07.01.1a.425.425,0,0,0,.1.17c.03.02.05.04.08.06a.414.414,0,0,0,.19.05h.28a.32.32,0,0,0,.14-.03.368.368,0,0,0,.2-.2.319.319,0,0,0,.03-.14c0-.03-.01-.07-.01-.1a.425.425,0,0,0-.1-.17c-.03-.02-.05-.04-.08-.06a.414.414,0,0,0-.19-.05Z" fill="#5a3a1b"/><path d="M237.42,273.04a.5.5,0,0,0-.29-.09.532.532,0,0,0-.3.07.693.693,0,0,0-.31.3.787.787,0,0,0-.08.3.775.775,0,0,0,.07.3.708.708,0,0,0,.32.32,1.02,1.02,0,0,0,.96-.02.764.764,0,0,0,.36-.43.621.621,0,0,0-.07-.53.979.979,0,0,0-.9-.35.405.405,0,0,0-.27.11.386.386,0,0,0-.11.27.393.393,0,0,0,.38.38,1.925,1.925,0,0,1,.24.01c-.03,0-.07-.01-.1-.01a.607.607,0,0,1,.18.05c-.03-.01-.06-.03-.09-.04a.208.208,0,0,1,.1.06c-.03-.02-.05-.04-.08-.06.02.01.03.03.05.05-.02-.03-.04-.05-.06-.08l.03.06c-.01-.03-.03-.06-.04-.09a.185.185,0,0,1,.02.07c0-.03-.01-.07-.01-.1v.06c0-.03.01-.07.01-.1a.145.145,0,0,1-.02.07c.01-.03.03-.06.04-.09a.251.251,0,0,1-.04.07c.02-.03.04-.05.06-.08a.764.764,0,0,1-.09.09c.03-.02.05-.04.08-.06a.747.747,0,0,1-.12.07c.03-.01.06-.03.09-.04a.835.835,0,0,1-.15.04c.03,0,.07-.01.1-.01a.6.6,0,0,1-.19,0c.03,0,.07.01.1.01a.749.749,0,0,1-.16-.04c.03.01.06.03.09.04-.04-.02-.07-.04-.11-.06.03.02.05.04.08.06a.234.234,0,0,1-.07-.07c.02.03.04.05.06.08a.25.25,0,0,1-.04-.07c.01.03.03.06.04.09-.01-.02-.01-.04-.02-.05,0,.03.01.07.01.1v-.07c0,.03-.01.07-.01.1a.145.145,0,0,1,.02-.07c-.01.03-.03.06-.04.09a.251.251,0,0,1,.04-.07c-.02.03-.04.05-.06.08.02-.02.04-.05.06-.06-.03.02-.05.04-.08.06a.2.2,0,0,1,.08-.04c-.03.01-.06.03-.09.04.02-.01.04-.01.06-.02-.03,0-.07.01-.1.01h.05c-.03,0-.07-.01-.1-.01.02,0,.03.01.05.01-.03-.01-.06-.03-.09-.04.02.01.03.02.05.03a.417.417,0,0,0,.29.04.345.345,0,0,0,.22-.17.369.369,0,0,0,.04-.29c-.01-.03-.03-.06-.04-.09a.184.184,0,0,0-.1-.19Z" fill="#d5308a"/><path d="M238,273.71a.637.637,0,0,1,.14-.08c-.07.03.12-.05.04-.01.05,0,.05,0,0-.01.04.01.04.01,0-.01.04.02.04.02,0-.01l.01.01a.076.076,0,0,1-.02-.05.2.2,0,0,1,.11-.22c.04-.02.04-.02,0-.01h-.02a.964.964,0,0,1-.17,0c.03,0,.02,0-.03-.01-.03-.01-.05-.01-.08-.02-.03.25-.07.49-.1.74h.02c.07.03-.01-.01-.03-.02h0c-.01-.01-.01-.02-.02-.04a.182.182,0,0,1,.03-.14.105.105,0,0,1,.09-.05.03.03,0,0,1,.04,0c.03.01.03.01.01,0s-.02-.01.01,0l-.04-.04c-.02-.02-.02-.02,0,.01-.01-.02-.03-.04-.04-.06-.2.15-.39.3-.59.45-.04-.05-.01,0,0,0-.01-.04-.02-.04-.01-.02s.01.02,0,0c-.01-.04,0,.02,0,.03v-.02c0,.01-.01.02-.01.03-.01-.05.03-.01,0,0,.01-.01.01-.02.02-.03-.03.02-.03.03-.01.01.05-.03-.05.02,0,0s-.09.01.02,0h-.06c.03,0,.05.01.01,0,.08.02-.01-.01.02.01s-.02-.04,0,0c.02.02.02.02,0-.01.01.01.01.02.02.03,0-.01-.01-.02-.01-.03a.06.06,0,0,0,.01.04c.01-.07-.02.04,0,0s-.04.07.01-.01a.376.376,0,0,0-.06-.45.367.367,0,0,0-.45-.06,2.4,2.4,0,0,1-.26.18c.05-.03-.06.03-.06.02.02-.04.12.06.05,0a.121.121,0,0,1,.05.05.182.182,0,0,1,0,.2c-.01.01-.01.02-.02.02.03-.03.03-.03,0-.01a.473.473,0,0,1,.12-.07c-.02.01-.01.01.03-.01h.02a.386.386,0,0,0,.38-.38.393.393,0,0,0-.38-.38h-.02a.236.236,0,0,1-.08-.02.645.645,0,0,1-.07-.02c-.04-.01-.05-.02-.03-.01s.01.01-.03-.01a.25.25,0,0,1-.07-.04c-.04-.03-.04-.03-.01,0,.01.02.03.05.04.07v.2c.02-.12-.05.12-.11.11.03,0,.09-.02.11-.02-.07.01.05,0,.06,0h.12c.08,0-.03-.01.05.01.04.01.08.02.11.03l.09.03h0a.25.25,0,0,1,.07.04.372.372,0,0,0,.38-.64,1.612,1.612,0,0,0-.71-.2.979.979,0,0,0-.76.21.517.517,0,0,0-.14.47.629.629,0,0,0,.26.34,1.391,1.391,0,0,0,.71.23v-.75c-.48-.02-1.1.47-.8.98a.658.658,0,0,0,.61.32,1.291,1.291,0,0,0,.64-.29l-.51-.51a.726.726,0,0,0,.69,1.09.754.754,0,0,0,.49-1.27.379.379,0,0,0-.49-.03.375.375,0,0,0-.1.48.936.936,0,0,0,.51.43.621.621,0,0,0,.7-.26.654.654,0,0,0-.64-.96.377.377,0,0,0-.37.33.372.372,0,0,0,.27.41,1.357,1.357,0,0,0,.72.03.549.549,0,0,0,.38-.7.712.712,0,0,0-.52-.46.987.987,0,0,0-.74.18.374.374,0,0,0-.13.51.41.41,0,0,0,.53.12Z" fill="#d5308a"/><path d="M237.11,273.93a.561.561,0,0,0,.39-.17.369.369,0,0,0,.08-.41.349.349,0,0,0-.12-.15.324.324,0,0,0-.23-.08,2.17,2.17,0,0,0-.43.08c.1.23.19.46.29.69l.24-.12a.372.372,0,0,0,.17-.22.4.4,0,0,0-.02-.24.376.376,0,0,0-.15-.18.417.417,0,0,0-.29-.04l-.15.03c.1.23.19.46.29.69.02-.01.03-.02.05-.02-.03.01-.06.03-.09.04a.664.664,0,0,1,.2-.06c-.03,0-.07.01-.1.01a.33.33,0,0,1,.14,0c-.03,0-.07-.01-.1-.01l.12.03c-.03-.01-.06-.03-.09-.04a.469.469,0,0,1,.09.06c-.03-.02-.05-.04-.08-.06a.269.269,0,0,1,.07.08c-.02-.03-.04-.05-.06-.08l.02.02a.372.372,0,0,0,.22.17.4.4,0,0,0,.24-.02.374.374,0,0,0,.22-.44.654.654,0,0,0-.13-.23.529.529,0,0,0-.23-.13c.09.15.17.31.26.46v-.01c-.01.03-.03.06-.04.09v-.01c-.02.03-.04.05-.06.08l.01-.01c-.03.02-.05.04-.08.06h.01c-.03.01-.06.03-.09.04h.02c-.03,0-.07.01-.1.01h.01c-.03,0-.07-.01-.1-.01h.02c-.03-.01-.06-.03-.09-.04a.01.01,0,0,1,.01.01c-.03-.02-.05-.04-.08-.06.01,0,.01.01.01.02-.02-.03-.04-.05-.06-.08,0,.01.01.01.01.02-.01-.03-.03-.06-.04-.09,0,.01.01.03.01.04,0-.03-.01-.07-.01-.1v.06c0-.03.01-.07.01-.1a.142.142,0,0,1-.02.06c.01-.03.03-.06.04-.09l-.03.06c.02-.03.04-.05.06-.08-.02.02-.03.04-.05.05.03-.02.05-.04.08-.06-.02.01-.03.02-.05.03.03-.01.06-.03.09-.04a.5.5,0,0,1-.13.03c.03,0,.07-.01.1-.01a.6.6,0,0,1-.19,0c.03,0,.07.01.1.01-.03-.01-.06-.01-.09-.02.03.01.06.03.09.04l-.06-.03c.03.02.05.04.08.06-.02-.01-.03-.03-.05-.05.02.03.04.05.06.08a.076.076,0,0,1-.02-.04c.01.03.03.06.04.09,0-.01-.01-.02-.01-.04,0,.03.01.07.01.1v-.04c0,.03-.01.07-.01.1v-.01c-.01.03-.03.06-.04.09.01-.01.01-.02.02-.03-.02.03-.04.05-.06.08a.1.1,0,0,1,.05-.04c-.03.02-.05.04-.08.06a.2.2,0,0,1,.08-.04c-.03.01-.06.03-.09.04a.292.292,0,0,1,.09-.02c-.03,0-.07.01-.1.01h.09c-.03,0-.07-.01-.1-.01a.142.142,0,0,1,.06.02c-.03-.01-.06-.03-.09-.04.02.01.03.01.04.02-.03-.02-.05-.04-.08-.06l.02.02c-.02-.03-.04-.05-.06-.08.01.01.01.02.02.03-.01-.03-.03-.06-.04-.09,0,.01,0,.01.01.02,0-.03-.01-.07-.01-.1v.02c0-.03.01-.07.01-.1a.037.037,0,0,1-.01.03c.01-.03.03-.06.04-.09-.01.01-.01.02-.02.03.02-.03.04-.05.06-.08-.01.02-.03.03-.05.05.03-.02.05-.04.08-.06l-.06.03c.03-.01.06-.03.09-.04a.309.309,0,0,1-.08.02c.03,0,.07-.01.1-.01h-.1c.03,0,.07.01.1.01a.356.356,0,0,1-.1-.02c.03.01.06.03.09.04-.02-.01-.03-.02-.05-.03.03.02.05.04.08.06l-.03-.03c.02.03.04.05.06.08,0-.01-.01-.01-.01-.02.01.03.03.06.04.09,0-.01-.01-.02-.01-.03,0,.03.01.07.01.1v-.02c0,.03-.01.07-.01.1,0-.01,0-.01.01-.02-.01.03-.03.06-.04.09,0-.01.01-.01.01-.02-.02.03-.04.05-.06.08l.02-.02c-.03.02-.05.04-.08.06a.218.218,0,0,1,.05-.03c-.03.01-.06.03-.09.04a.292.292,0,0,1,.09-.02c-.03,0-.07.01-.1.01a.809.809,0,0,1,.22,0c-.03,0-.07-.01-.1-.01a1.056,1.056,0,0,1,.19.05c-.03-.01-.06-.03-.09-.04.01,0,.01.01.02.01-.03-.02-.05-.04-.08-.06l.01.01c-.02-.03-.04-.05-.06-.08v.01c-.02-.06-.03-.13-.05-.19v.01c0-.03.01-.07.01-.1v.01a1.507,1.507,0,0,1,.1-.17l-.01.01c.03-.02.05-.04.08-.06a.161.161,0,0,1-.07.04c.03-.01.06-.03.09-.04a1.165,1.165,0,0,1-.18.04c.03,0,.07-.01.1-.01h-.05c.03,0,.07.01.1.01h-.01c.03.01.06.03.09.04h-.01c.03.02.05.04.08.06l-.01-.01a1.507,1.507,0,0,0,.1.17v-.01c0,.03.01.07.01.1v-.01c0,.03-.01.07-.01.1v-.01c-.01.03-.03.06-.04.09a.01.01,0,0,1,.01-.01c-.02.03-.04.05-.06.08l.01-.01c-.03.02-.05.04-.08.06a.219.219,0,0,0,.05-.03.405.405,0,0,0,.21-.35.4.4,0,0,0-.08-.23.362.362,0,0,0-.39-.13.909.909,0,0,0-.48.18.466.466,0,0,0-.1.45.612.612,0,0,0,.24.31.4.4,0,0,0,.15.06.874.874,0,0,0,.16.02.987.987,0,0,0,.24-.03,1.021,1.021,0,0,0,.4-.24.379.379,0,0,0,.1-.32.37.37,0,0,0-.18-.27.475.475,0,0,0-.24-.06.482.482,0,0,0-.3.13c-.02.03-.04.05-.06.08a.23.23,0,0,0-.04.14.4.4,0,0,0,.04.24.4.4,0,0,0,.13.13.37.37,0,0,0,.29.04c.02-.01.05-.02.07-.03-.14-.18-.28-.37-.42-.55-.01.01-.01.02-.02.04.02-.03.04-.05.06-.08-.01.01-.02.03-.04.04.03-.02.05-.04.08-.06a.161.161,0,0,1-.07.04c.03-.01.06-.03.09-.04a1.977,1.977,0,0,1-.26.07.345.345,0,0,0-.22.17.336.336,0,0,0-.04.24.372.372,0,0,0,.1.22.436.436,0,0,0,.27.11.837.837,0,0,0,.84-.32.67.67,0,0,0-.02-.63.657.657,0,0,0-.42-.31,1.292,1.292,0,0,0-.48-.01.584.584,0,0,0-.22.08.719.719,0,0,0-.24.22.582.582,0,0,0-.03.61.73.73,0,0,0,.33.32.9.9,0,0,0,.32.09.744.744,0,0,0,.26-.02.553.553,0,0,0,.22-.1,1.053,1.053,0,0,0,.24-.23.417.417,0,0,0,.04-.29.345.345,0,0,0-.17-.22.37.37,0,0,0-.29-.04c-.03.01-.06.03-.09.04a.325.325,0,0,0-.13.13.01.01,0,0,1-.01.01c.02-.03.04-.05.06-.08a.234.234,0,0,1-.07.07c.03-.02.05-.04.08-.06l-.09.06c.03-.01.06-.03.09-.04a.266.266,0,0,1-.12.03c.03,0,.07-.01.1-.01h-.11c.03,0,.07.01.1.01a.452.452,0,0,1-.11-.03c.03.01.06.03.09.04-.04-.02-.07-.04-.11-.06.03.02.05.04.08.06a.234.234,0,0,1-.07-.07c.02.03.04.05.06.08a.557.557,0,0,1-.05-.08c.01.03.03.06.04.09a.09.09,0,0,1-.01-.05c0,.03.01.07.01.1v-.05c0,.03-.01.07-.01.1,0-.02.01-.04.01-.06-.01.03-.03.06-.04.09a.209.209,0,0,1,.04-.06c-.02.03-.04.05-.06.08.02-.02.03-.04.05-.05-.03.02-.05.04-.08.06a.161.161,0,0,1,.07-.04c-.03.01-.06.03-.09.04a.277.277,0,0,1,.13-.03c-.03,0-.07.01-.1.01a.81.81,0,0,1,.22,0c-.03,0-.07-.01-.1-.01l.12.03c-.03-.01-.06-.03-.09-.04a.161.161,0,0,1,.07.04c-.03-.02-.05-.04-.08-.06.02.01.03.03.04.04-.02-.03-.04-.05-.06-.08.01.02.02.03.03.05-.01-.03-.03-.06-.04-.09a.235.235,0,0,1,.02.08c0-.03-.01-.07-.01-.1a.335.335,0,0,1,0,.1c0-.03.01-.07.01-.1,0,.01-.01.03-.01.04.01-.03.03-.06.04-.09-.01.01-.01.02-.02.03.02-.03.04-.05.06-.08l-.03.03c.03-.02.05-.04.08-.06a.251.251,0,0,1-.07.04c.03-.01.06-.03.09-.04a.308.308,0,0,1-.13.03c.03,0,.07-.01.1-.01a1.129,1.129,0,0,1-.26,0c.03.25.07.49.1.74a2.265,2.265,0,0,0,.25-.06.615.615,0,0,0,.36-.29.414.414,0,0,0,.05-.19.4.4,0,0,0-.08-.23.443.443,0,0,0-.15-.12.335.335,0,0,0-.24-.02c-.02.01-.05.02-.07.03l.36.63a.01.01,0,0,0,.01-.01c-.03.02-.05.04-.08.06a.01.01,0,0,0,.01-.01c-.03.01-.06.03-.09.04.01,0,.01-.01.02-.01-.03,0-.07.01-.1.01h.02c-.03,0-.07-.01-.1-.01.01,0,.01,0,.02.01-.03-.01-.06-.03-.09-.04h.01c-.03-.2-.05-.39-.08-.59a.435.435,0,0,1-.07.06c.03-.02.05-.04.08-.06a.747.747,0,0,1-.12.07c.03-.01.06-.03.09-.04a.574.574,0,0,1-.14.04c.03,0,.07-.01.1-.01h-.09c.03,0,.07.01.1.01a.142.142,0,0,1-.06-.02c.03.01.06.03.09.04-.01-.01-.03-.01-.04-.02.03.02.05.04.08.06l-.02-.02c.02.03.04.05.06.08a.052.052,0,0,1-.02-.04c.01.03.03.06.04.09,0-.01-.01-.02-.01-.03,0,.03.01.07.01.1v-.03c0,.03-.01.07-.01.1,0-.01,0-.02.01-.02-.01.03-.03.06-.04.09a.01.01,0,0,1,.01-.01c-.02.03-.04.05-.06.08l.01-.01c-.03.02-.05.04-.08.06h.01c-.03.01-.06.03-.09.04a.89.89,0,0,1,.14-.03c.05-.01.1-.02.16-.03-.14-.18-.28-.37-.42-.55a.01.01,0,0,1-.01.01c.02-.03.04-.05.06-.08l-.01.01c.03-.02.05-.04.08-.06-.02.01-.03.02-.05.02a.391.391,0,0,0-.1.08.407.407,0,0,0-.01.57.418.418,0,0,0,.18.11.59.59,0,0,0,.14.02l.21-.03a.528.528,0,0,0,.42-.34.38.38,0,0,0-.14-.42.672.672,0,0,0-.23-.1,1.02,1.02,0,0,0-.35-.04.771.771,0,0,0-.39.09.458.458,0,0,0-.22.53.533.533,0,0,0,.39.35.814.814,0,0,0,.38.01.852.852,0,0,0,.17-.06c.02-.01.03-.02.05-.03a.481.481,0,0,0,.11-.09.722.722,0,0,0,.14-.24.5.5,0,0,0-.05-.36.5.5,0,0,0-.19-.19.739.739,0,0,0-.29-.08,1.233,1.233,0,0,0-.2.02.563.563,0,0,0-.18.07.534.534,0,0,0-.3.46.59.59,0,0,0,.27.46.782.782,0,0,0,.4.12,1.644,1.644,0,0,0,.23-.02.568.568,0,0,0,.22-.07.351.351,0,0,0,.08-.05.27.27,0,0,0,.08-.07.722.722,0,0,0,.14-.24.577.577,0,0,0-.04-.48.436.436,0,0,0-.37-.21.417.417,0,0,0-.4.31.377.377,0,0,0,.26.46c.01,0,.02.01.03.01-.03-.01-.06-.03-.09-.04.01.01.02.01.03.02-.03-.02-.05-.04-.08-.06l.02.02c-.02-.03-.04-.05-.06-.08,0,.01.01.01.01.02-.01-.03-.03-.06-.04-.09,0,.01.01.01.01.02.23-.1.46-.19.69-.29a.839.839,0,0,0-.27-.26.756.756,0,0,0-.35-.11,1.029,1.029,0,0,0-.57.14.372.372,0,0,0-.17.22.4.4,0,0,0,.02.24.376.376,0,0,0,.15.18.417.417,0,0,0,.29.04l.15-.03c-.1-.23-.19-.46-.29-.69l-.24.12a.379.379,0,0,0-.15.47.374.374,0,0,0,.44.22,1.31,1.31,0,0,1,.27-.06c-.03,0-.07.01-.1.01a.127.127,0,0,0,.06-.01c-.09-.21-.18-.43-.27-.64l-.02.02c.03-.02.05-.04.08-.06a.076.076,0,0,1-.04.02c.03-.01.06-.03.09-.04a.09.09,0,0,1-.05.01c.03,0,.07-.01.1-.01h-.02a.461.461,0,0,0-.27.11.386.386,0,0,0,0,.54.335.335,0,0,0,.24.1Z" fill="#8f2c61"/><path d="M236.58,273.45a.076.076,0,0,1-.05.02c.03-.01.06-.03.09-.04l-.11.03a.785.785,0,0,0-.14.05.355.355,0,0,0-.09.04.762.762,0,0,0-.11.08.7.7,0,0,0-.08.1c0,.01-.01.01-.01.02a1.175,1.175,0,0,0-.05.11v.01a.34.34,0,0,0-.01.1v.01c0,.02.01.09.01.1v.01c.01.02.03.07.04.09s.05.06.06.08l.01.01a.768.768,0,0,0,.25.14.448.448,0,0,0,.2.04h.05c.05-.01.1-.01.15-.02a.592.592,0,0,0,.14-.06l.06-.03a1.05,1.05,0,0,0,.11-.07.346.346,0,0,0,.11-.1.329.329,0,0,0,.07-.13c0-.03.01-.07.01-.1a.414.414,0,0,0-.05-.19l-.06-.12a.345.345,0,0,0-.09-.12.387.387,0,0,0-.38-.1.367.367,0,0,0-.17.1.4.4,0,0,0-.1.18.8.8,0,0,0-.03.15v.06a.8.8,0,0,0,.03.15.414.414,0,0,0,.17.22.23.23,0,0,0,.14.04.257.257,0,0,0,.15-.01.38.38,0,0,0,.22-.17c.01-.03.03-.06.04-.09a.341.341,0,0,0,0-.2.611.611,0,0,0-.05-.12c-.01-.01-.01-.02-.02-.03a.617.617,0,0,0-.18-.18.23.23,0,0,0-.14-.04.257.257,0,0,0-.15.01.38.38,0,0,0-.22.17.506.506,0,0,0-.05.4c.18-.14.37-.28.55-.42h0c.03.02.05.04.08.06a.01.01,0,0,1-.01-.01c.02.03.04.05.06.08a.254.254,0,0,0-.08-.1.425.425,0,0,0-.17-.1.3.3,0,0,0-.16-.01.27.27,0,0,0-.15.05.467.467,0,0,0-.14.14.5.5,0,0,0-.05.13c.01-.03.03-.06.04-.09a.01.01,0,0,1-.01.01c.02-.03.04-.05.06-.08h0c.03-.02.05-.04.08-.06h-.01c.17.04.34.09.51.13a.441.441,0,0,0-.27-.21c-.03,0-.07-.01-.1-.01h-.01a.414.414,0,0,0-.19.05.431.431,0,0,0-.15.15c.2-.03.39-.05.59-.08-.01-.01-.02-.01-.03-.02a.255.255,0,0,0-.12-.08.342.342,0,0,0-.28,0,.255.255,0,0,0-.12.08.386.386,0,0,0-.11.27c0,.03.01.07.01.1a.425.425,0,0,0,.1.17c.01.01.02.01.03.02a.367.367,0,0,0,.17.1.258.258,0,0,0,.15.01.329.329,0,0,0,.27-.17h0c-.02.03-.04.05-.06.08a.01.01,0,0,1,.01-.01c-.03.02-.05.04-.08.06h0c-.03.01-.06.03-.09.04h.01c-.03,0-.07.01-.1.01h.01c-.03,0-.07-.01-.1-.01h.01c-.03-.01-.06-.03-.09-.04h.01c-.03-.02-.05-.04-.08-.06.01,0,.01.01.01.02-.02-.03-.04-.05-.06-.08,0,.01.01.01.01.02a.346.346,0,0,0,.1.11.329.329,0,0,0,.13.07.37.37,0,0,0,.29-.04.536.536,0,0,0,.15-.15c.02-.04.03-.08.05-.12-.01.03-.03.06-.04.09a.01.01,0,0,1,.01-.01c-.02.03-.04.05-.06.08h0c-.03.02-.05.04-.08.06h.01c-.03.01-.06.03-.09.04h.01c-.03,0-.07.01-.1.01h.01c-.03,0-.07-.01-.1-.01h0c-.03-.01-.06-.03-.09-.04h0c-.03-.02-.05-.04-.08-.06h0c-.02-.03-.04-.05-.06-.08a.031.031,0,0,1,.01.02c.02.02.04.06.06.08s.03.02.04.03.03.02.04.03c.03.01.06.03.09.04s.07.01.1.01.07-.01.1-.01a.239.239,0,0,0,.13-.07.234.234,0,0,0,.07-.07.218.218,0,0,0,.05-.08.161.161,0,0,0,.03-.09.257.257,0,0,0-.01-.15v-.02c0,.03.01.07.01.1v-.04c0,.03-.01.07-.01.1,0-.01.01-.03.01-.04-.01.03-.03.06-.04.09,0-.01,0-.01.01-.01-.17.04-.34.09-.51.13l.01.01c-.03-.02-.05-.04-.08-.06l.03.03c-.02-.03-.04-.05-.06-.08a.076.076,0,0,1,.02.04c-.01-.03-.03-.06-.04-.09,0,.01.01.02.01.03.24-.07.48-.13.72-.2a.09.09,0,0,1-.01-.05c0,.03.01.07.01.1v-.06c0,.03-.01.07-.01.1,0-.02.01-.04.01-.06-.01.03-.03.06-.04.09v-.01l-.13.13h.01c-.06.02-.13.03-.19.05h.01c-.03,0-.07-.01-.1-.01h.01c-.03-.01-.06-.03-.09-.04h.01c-.03-.02-.05-.04-.08-.06v.01c-.02-.03-.04-.05-.06-.08a1.193,1.193,0,0,1,.08.16c.04-.17.09-.34.13-.51a.949.949,0,0,1-.17.1c.03-.01.06-.03.09-.04-.03.01-.06.02-.1.03.03,0,.07-.01.1-.01h-.07c.03,0,.07.01.1.01a.189.189,0,0,1-.08-.02c.03.01.06.03.09.04a.218.218,0,0,1-.08-.05c.03.02.05.04.08.06l-.01-.01c.02.03.04.05.06.08v-.01c.01.03.03.06.04.09v-.01c0,.03.01.07.01.1v-.02c0,.03-.01.07-.01.1,0-.01,0-.02.01-.02-.01.03-.03.06-.04.09.01-.01.01-.02.02-.03-.02.03-.04.05-.06.08l.03-.03c-.03.02-.05.04-.08.06a.434.434,0,0,1,.07-.04c-.03.01-.06.03-.09.04a.5.5,0,0,1,.13-.04,1.306,1.306,0,0,0,.21-.08.372.372,0,0,0,.17-.22.257.257,0,0,0,.01-.15.326.326,0,0,0-.04-.14.372.372,0,0,0-.22-.17.387.387,0,0,0-.3.03Z" fill="#8f2c61"/><path d="M237.17,274.05a.375.375,0,0,0,0-.75.375.375,0,0,0,0,.75Z" fill="#8f2c61"/><path d="M236.81,273.86a.218.218,0,0,1-.03.05.578.578,0,0,0-.05.14.772.772,0,0,0-.02.15.4.4,0,0,0,.03.15.754.754,0,0,0,.06.13,1.061,1.061,0,0,0,.09.11c.04.03.07.06.11.09s.09.04.13.06a1.289,1.289,0,0,0,.19.04h.05a.591.591,0,0,0,.14-.02.7.7,0,0,0,.13-.05.444.444,0,0,0,.11-.08c.01-.01.03-.02.04-.04a.5.5,0,0,0,.08-.12.888.888,0,0,0,.09-.45.319.319,0,0,0-.03-.14.255.255,0,0,0-.08-.12.369.369,0,0,0-.27-.11.471.471,0,0,0-.3.12c-.02.01-.03.03-.04.04.03-.02.05-.04.08-.06-.01,0-.01.01-.02.01.03-.01.06-.03.09-.04-.01,0-.02.01-.03.01.03,0,.07-.01.1-.01a2.251,2.251,0,0,1-.26,0,.176.176,0,0,0-.06.01.09.09,0,0,0-.05.01c-.03.01-.06.03-.09.04a.5.5,0,0,0-.14.15c-.01.02-.02.03-.03.05a.465.465,0,0,0-.06.23v.02c0,.03.01.08.01.1v.02c.01.02.03.07.04.09a.1.1,0,0,0,.04.05.3.3,0,0,0,.08.08.176.176,0,0,0,.05.04.419.419,0,0,0,.1.04.41.41,0,0,0,.11.01.127.127,0,0,0,.06-.01.17.17,0,0,0,.07-.01c.02-.01.07-.03.09-.04a.01.01,0,0,0,.01-.01.4.4,0,0,1,.04-.03.4.4,0,0,0,.04-.03.55.55,0,0,0,.07-.09l.03-.06a.487.487,0,0,0,.03-.07c.01-.04.01-.08.02-.11a.17.17,0,0,0-.01-.07c0-.04,0-.04-.01-.06a.247.247,0,0,0-.04-.09c-.01-.01-.05-.07-.06-.08a.418.418,0,0,0-.08-.06.374.374,0,0,0-.31-.03.593.593,0,0,0-.19.11c-.01,0-.01.01-.02.01a.55.55,0,0,0-.07.09c0,.01-.01.01-.01.02a.358.358,0,0,0-.04.11.373.373,0,0,0-.01.18.2.2,0,0,0,.01.07v.01c.01.03.03.07.04.1a.218.218,0,0,0,.04.05c.01.02.03.03.04.05.03.02.06.05.09.07.01,0,.01.01.02.01a.428.428,0,0,0,.22.06.2.2,0,0,0,.07-.01.17.17,0,0,0,.07-.01.123.123,0,0,0,.05-.02c.01-.01.04-.01.05-.02a.549.549,0,0,0,.09-.07l.01-.01c.02-.03.05-.06.07-.09a.418.418,0,0,0,.04-.1c0-.01,0-.01.01-.02a.448.448,0,0,0,0-.23.142.142,0,0,0-.02-.06.262.262,0,0,0-.05-.09.573.573,0,0,0-.11-.11c-.02-.01-.07-.03-.09-.04s-.07-.01-.1-.01h-.01a.09.09,0,0,0-.05.01.325.325,0,0,0-.14.04.418.418,0,0,0-.08.06.4.4,0,0,0-.03.04.162.162,0,0,0-.05.09c-.01.02-.02.03-.02.05a.375.375,0,0,0-.01.11v.03c0,.02.01.04.01.06a.127.127,0,0,0,.01.06v.01c.01.03.03.07.04.1a.4.4,0,0,1,.03.04.176.176,0,0,0,.04.05.42.42,0,0,0,.14.09.257.257,0,0,0,.05.02h.01c.03,0,.07.01.1.01a.148.148,0,0,0,.06-.01.127.127,0,0,0,.06-.01.792.792,0,0,0,.09-.04.555.555,0,0,0,.08-.06.311.311,0,0,0,.07-.09l.06-.12a.23.23,0,0,0,.04-.14.257.257,0,0,0-.01-.15.38.38,0,0,0-.17-.22c-.03-.01-.07-.03-.1-.04a.127.127,0,0,0-.06-.01c-.02,0-.04-.01-.06-.01s-.08.01-.11.01a.239.239,0,0,0-.13.07.357.357,0,0,0-.1.11.23.23,0,0,0-.04.14.257.257,0,0,0,.01.15.38.38,0,0,0,.17.22c.03.01.06.03.09.04a.341.341,0,0,0,.2,0h.01c-.03,0-.07.01-.1.01h.01c-.03,0-.07-.01-.1-.01h.01c-.03-.01-.06-.03-.09-.04h.01c-.04-.17-.09-.34-.13-.51a1.338,1.338,0,0,1-.06.12c.02-.03.04-.05.06-.08a.01.01,0,0,1-.01.01c.03-.02.05-.04.08-.06h-.01c.03-.01.06-.03.09-.04h-.01c.03,0,.07-.01.1-.01h-.01c.03,0,.07.01.1.01h-.01c.03.01.06.03.09.04a.01.01,0,0,1-.01-.01c.03.02.05.04.08.06l-.01-.01c.02.03.04.05.06.08l-.01-.01c.01.03.03.06.04.09,0-.01,0-.02-.01-.02,0,.03.01.07.01.1v-.05c0,.03-.01.07-.01.1v-.01c-.01.03-.03.06-.04.09v-.01c-.02.03-.04.05-.06.08h0c-.03.02-.05.04-.08.06h.01c-.06.02-.13.03-.19.05h.01c-.06-.02-.13-.03-.19-.05h.01c-.03-.02-.05-.04-.08-.06v.01c-.02-.03-.04-.05-.06-.08a.01.01,0,0,0,.01.01c-.01-.03-.03-.06-.04-.09v.02c0-.03-.01-.07-.01-.1v.02c0-.03.01-.07.01-.1,0,.01,0,.02-.01.02.01-.03.03-.06.04-.09,0,.01-.01.01-.01.02.02-.03.04-.05.06-.08l-.02.02c.03-.02.05-.04.08-.06-.01,0-.01.01-.02.01.03-.01.06-.03.09-.04-.01,0-.02.01-.03.01.03,0,.07-.01.1-.01h-.02c.03,0,.07.01.1.01a.037.037,0,0,1-.03-.01c.03.01.06.03.09.04a.035.035,0,0,1-.02-.01c.03.02.05.04.08.06l-.02-.02c.02.03.04.05.06.08-.01-.01-.01-.01-.01-.02.01.03.03.06.04.09,0-.01-.01-.02-.01-.03,0,.03.01.07.01.1v-.02c0,.03-.01.07-.01.1a.037.037,0,0,1,.01-.03c-.01.03-.03.06-.04.09a.035.035,0,0,1,.01-.02c-.02.03-.04.05-.06.08l.02-.02c-.03.02-.05.04-.08.06a.031.031,0,0,1,.02-.01c-.03.01-.06.03-.09.04.01,0,.01,0,.02-.01-.03,0-.07.01-.1.01h.01c-.06-.02-.13-.03-.19-.05h.01l-.13-.13h0c-.01-.03-.03-.06-.04-.09v.01c0-.03-.01-.07-.01-.1v.03c0-.03.01-.07.01-.1a.037.037,0,0,1-.01.03c.01-.03.03-.06.04-.09,0,.01-.01.01-.01.02.02-.03.04-.05.06-.08,0,.01-.01.01-.02.02.03-.02.05-.04.08-.06-.01,0-.01.01-.02.01.03-.01.06-.03.09-.04h-.02c.03,0,.07-.01.1-.01h-.01c.03,0,.07.01.1.01h-.01c.03.01.06.03.09.04-.01,0-.01-.01-.02-.01.03.02.05.04.08.06l-.01-.01c.02.03.04.05.06.08,0-.01-.01-.01-.01-.02.01.03.03.06.04.09,0-.01-.01-.02-.01-.03,0,.03.01.07.01.1v-.03c0,.03-.01.07-.01.1,0-.01.01-.02.01-.03-.01.03-.03.06-.04.09a.209.209,0,0,1,.04-.06,3.37,3.37,0,0,0-.32.19.963.963,0,0,0,.24,0,.484.484,0,0,0,.26-.07.549.549,0,0,0,.09-.07l.01-.01.03-.03c-.03.02-.05.04-.08.06.01,0,.01-.01.02-.01-.03.01-.06.03-.09.04h.01c-.03,0-.07.01-.1.01h.01l-.38-.38a.752.752,0,0,1,0,.15c0-.03.01-.07.01-.1a.292.292,0,0,1-.02.09c.01-.03.03-.06.04-.09a.209.209,0,0,1-.04.06c.02-.03.04-.05.06-.08-.01.01-.02.03-.04.04.03-.02.05-.04.08-.06-.02.01-.03.02-.05.03.03-.01.06-.03.09-.04-.02.01-.04.01-.06.02.03,0,.07-.01.1-.01h-.07c.03,0,.07.01.1.01a.236.236,0,0,1-.08-.02c.03.01.06.03.09.04a.209.209,0,0,1-.06-.04c.03.02.05.04.08.06-.02-.01-.03-.03-.05-.04.02.03.04.05.06.08a.076.076,0,0,1-.02-.04c.01.03.03.06.04.09a.09.09,0,0,1-.01-.05c0,.03.01.07.01.1v-.04c0,.03-.01.07-.01.1a.142.142,0,0,1,.02-.06c-.01.03-.03.06-.04.09a.218.218,0,0,1,.03-.05.23.23,0,0,0,.04-.14.257.257,0,0,0-.01-.15.239.239,0,0,0-.07-.13.356.356,0,0,0-.11-.1.37.37,0,0,0-.29-.04.349.349,0,0,0-.24.16Z" fill="#8f2c61"/><path d="M237.67,273.48c-.03.03-.07.05-.1.08l-.02.02-.01.01a.417.417,0,0,0-.06.08.4.4,0,0,0-.04.32.322.322,0,0,0,.08.14c.02.02.03.04.05.05l.04.04c.04.03.07.06.11.09.02.01.03.02.05.03a.637.637,0,0,0,.27.07c.02,0,.05-.01.07-.01a.17.17,0,0,0,.07-.01c.01,0,.01,0,.02-.01a.537.537,0,0,0,.11-.05.5.5,0,0,0,.19-.19.792.792,0,0,1,.04-.09v-.01a.965.965,0,0,0,.02-.12v-.02c0-.03-.01-.07-.01-.11v-.02a.31.31,0,0,0-.06-.13c-.02-.02-.05-.07-.07-.09a.218.218,0,0,0-.05-.04c-.02-.01-.03-.03-.05-.04s-.05-.02-.07-.03-.05-.02-.07-.03a.777.777,0,0,0-.16-.02.414.414,0,0,0-.19.05.346.346,0,0,0-.11.1.329.329,0,0,0-.07.13.341.341,0,0,0,0,.2c0,.01.01.02.01.03,0-.03-.01-.07-.01-.1v.08c0-.03.01-.07.01-.1v.01c.01-.03.03-.06.04-.09h0c.02-.03.04-.05.06-.08h0c.03-.02.05-.04.08-.06h0c.06-.02.13-.03.19-.05h-.01c.03,0,.07.01.1.01h-.01c.03.01.06.03.09.04a.01.01,0,0,1-.01-.01c.03.02.05.04.08.06a.218.218,0,0,1-.05-.04l-.36.63a1.11,1.11,0,0,1,.16.07.258.258,0,0,0,.15.01.325.325,0,0,0,.14-.04.346.346,0,0,0,.11-.1.329.329,0,0,0,.07-.13c0-.03.01-.07.01-.1a.414.414,0,0,0-.05-.19c-.02-.03-.04-.05-.06-.08a.367.367,0,0,0-.17-.1,1.11,1.11,0,0,1-.16-.07c-.03,0-.07-.01-.1-.01a.32.32,0,0,0-.14.03.137.137,0,0,0-.08.05.357.357,0,0,0-.1.11c-.01.03-.03.06-.04.09s-.01.07-.01.1a.319.319,0,0,0,.03.14.255.255,0,0,0,.08.12l.03.03a.874.874,0,0,0,.1.08.01.01,0,0,1,.01.01c.03.01.06.03.09.04a.127.127,0,0,0,.06.01.127.127,0,0,0,.06.01c.03,0,.07-.01.1-.01a.389.389,0,0,0,.2-.14c.01-.01.02-.03.03-.04.01-.03.03-.06.04-.09s.01-.08.02-.11v-.04a.88.88,0,0,0-.02-.17c-.12.16-.24.32-.36.47h.02c-.03,0-.07-.01-.1-.01a.142.142,0,0,1,.06.02c-.03-.01-.06-.03-.09-.04.01.01.02.01.04.02-.03-.02-.05-.04-.08-.06l.02.02c-.02-.03-.04-.05-.06-.08.01.01.01.02.02.03-.01-.03-.03-.06-.04-.09,0,.01.01.02.01.03,0-.03-.01-.07-.01-.1v.03c0-.03.01-.07.01-.1a.037.037,0,0,1-.01.03c.01-.03.03-.06.04-.09,0,.01-.01.01-.01.02.02-.03.04-.05.06-.08-.01.01-.01.02-.02.02.03-.02.05-.04.08-.06-.01.01-.02.01-.03.02.03-.01.06-.03.09-.04a.06.06,0,0,1-.04.01c.03,0,.07-.01.1-.01h-.05c.03,0,.07.01.1.01a.142.142,0,0,1-.06-.02c.03.01.06.03.09.04a.25.25,0,0,1-.07-.04c.03.02.05.04.08.06a.234.234,0,0,1-.07-.07c.02.03.04.05.06.08l-.01-.01c.01.03.03.06.04.09v-.01c0,.03.01.07.01.1v-.01c0,.03-.01.07-.01.1v-.01c-.01.03-.03.06-.04.09a.01.01,0,0,1,.01-.01c-.02.03-.04.05-.06.08a.265.265,0,0,1,.06-.05c.02-.02.05-.04.07-.06a.255.255,0,0,0,.08-.12.342.342,0,0,0,0-.28.255.255,0,0,0-.08-.12c-.03-.02-.05-.04-.08-.06a.414.414,0,0,0-.19-.05c-.03,0-.07.01-.1.01a.329.329,0,0,0-.23.1Z" fill="#8f2c61"/><path d="M237.53,273.55h0c0-.03-.01-.06-.01-.09v.01c0-.03.01-.07.01-.1a.772.772,0,0,0-.02.15.5.5,0,0,0,.02.12c.01.02.03.07.04.09a.524.524,0,0,0,.1.11c.02.01.03.03.05.04a.792.792,0,0,1,.09.04c.04.01.08.01.12.02s.06.01.09.01a.991.991,0,0,0,.42,0,.531.531,0,0,0,.31-.24.37.37,0,0,0,.05-.11v-.01c0-.03.01-.07.01-.1s-.01-.08-.01-.11v-.02c-.01-.03-.03-.07-.04-.1a.864.864,0,0,0-.07-.1c-.02-.02-.04-.03-.06-.05a.21.21,0,0,0-.06-.04.941.941,0,0,0-.15-.06.984.984,0,0,0-.17-.02h-.09a1.1,1.1,0,0,0-.18.02.189.189,0,0,0-.08.02.613.613,0,0,0-.12.05.426.426,0,0,0-.12.11.175.175,0,0,0-.04.05c-.01.03-.03.07-.04.1a.41.41,0,0,0-.01.11c0,.03.01.07.01.1v.01a.239.239,0,0,0,.07.13.356.356,0,0,0,.11.1c.03.01.06.03.09.04a.341.341,0,0,0,.2,0h.02c-.03,0-.07.01-.1.01a1.044,1.044,0,0,1,.25,0c-.03,0-.07-.01-.1-.01l.13.03a.374.374,0,0,0,.2-.72,1.565,1.565,0,0,0-.3-.05,1.515,1.515,0,0,0-.3.02c.15.09.31.17.46.26v-.01c0,.03.01.07.01.1v-.01c0,.03-.01.07-.01.1v-.01c-.01.03-.03.06-.04.09,0-.01,0-.01.01-.01-.02.03-.04.05-.06.08l.01-.01c-.03.02-.05.04-.08.06.01,0,.01-.01.02-.01-.03.01-.06.03-.09.04.03-.01.07-.02.11-.03-.03,0-.07.01-.1.01a.813.813,0,0,1,.22-.01c-.03,0-.07-.01-.1-.01a.142.142,0,0,1,.06.02c-.03-.01-.06-.03-.09-.04.01,0,.02.01.03.02-.03-.02-.05-.04-.08-.06.01.01.02.01.02.02-.02-.03-.04-.05-.06-.08,0,.01.01.01.01.02-.01-.03-.03-.06-.04-.09,0,.01.01.02.01.03,0-.03-.01-.07-.01-.1v.01c0-.03.01-.07.01-.1a.037.037,0,0,1-.01.03c.01-.03.03-.06.04-.09,0,.01-.01.01-.01.02.02-.03.04-.05.06-.08l-.03.03c.03-.02.05-.04.08-.06-.01.01-.02.01-.04.02.03-.01.06-.03.09-.04-.02.01-.04.01-.06.02.03,0,.07-.01.1-.01a.622.622,0,0,1-.19-.01c-.06-.01-.13-.01-.19-.02.03,0,.07.01.1.01h-.02c.03.01.06.03.09.04a.01.01,0,0,1-.01-.01c.03.02.05.04.08.06h0c.02.03.04.05.06.08v-.01c.01.03.03.06.04.09v-.01c0,.03.01.07.01.1v-.01c0,.03-.01.07-.01.1,0-.01.01-.03.01-.04a.41.41,0,0,0,.01-.11c0-.04-.01-.08-.01-.11a.239.239,0,0,0-.07-.13.356.356,0,0,0-.11-.1.23.23,0,0,0-.14-.04.257.257,0,0,0-.15.01.38.38,0,0,0-.22.17c-.01.03-.03.06-.04.09a.482.482,0,0,0,0,.17Z" fill="#8f2c61"/><path d="M236.61,273.2h-.02c.03,0,.07-.01.1-.01h-.02c.03,0,.07.01.1.01-.01,0-.02-.01-.03-.01.03.01.06.03.09.04a.637.637,0,0,1-.14-.08c-.05-.03-.09-.06-.14-.09.03.02.05.04.08.06l-.01-.01c.02.03.04.05.06.08v-.01c.01.03.03.06.04.09v-.01c0,.03.01.07.01.1v-.01c0,.03-.01.07-.01.1v-.01c-.01.03-.03.06-.04.09,0-.01,0-.01.01-.02-.02.03-.04.05-.06.08l.01-.01c-.03.02-.05.04-.08.06.01,0,.01-.01.02-.01-.03.01-.06.03-.09.04.01,0,.02-.01.03-.01-.03,0-.07.01-.1.01a1.006,1.006,0,0,1,.3,0c-.03,0-.07-.01-.1-.01a1.351,1.351,0,0,0,.28.04c-.03-.25-.07-.49-.1-.74a.72.72,0,0,0-.27.15.415.415,0,0,0-.12.2.148.148,0,0,0-.01.07c.01-.03.03-.06.04-.09,0,.01,0,.01-.01.02.02-.03.04-.05.06-.08l-.01.01c.03-.02.05-.04.08-.06l-.01.01c.03-.01.06-.03.09-.04h-.02c.03,0,.07-.01.1-.01h-.04c.03,0,.07.01.1.01l-.13-.03a.647.647,0,0,1-.13-.04c.03.01.06.03.09.04-.01,0-.02-.01-.03-.02.03.02.05.04.08.06l-.02-.02c.02.03.04.05.06.08a.434.434,0,0,1-.04-.07c.01.03.03.06.04.09,0-.01-.01-.02-.01-.03,0,.03.01.07.01.1v-.02c0,.03-.01.07-.01.1v-.02c-.01.03-.03.06-.04.09a.01.01,0,0,1,.01-.01c-.02.03-.04.05-.06.08l.01-.01c-.03.02-.05.04-.08.06h.01c-.03.01-.06.03-.09.04h.02c-.03,0-.07.01-.1.01h.01c-.03,0-.07-.01-.1-.01a.037.037,0,0,1,.03.01c-.03-.01-.06-.03-.09-.04.01,0,.01.01.02.01-.03-.02-.05-.04-.08-.06a.688.688,0,0,0,.13.11.59.59,0,0,0,.14.06.647.647,0,0,1,.13.04c-.03-.01-.06-.03-.09-.04.01,0,.02.01.03.02-.03-.02-.05-.04-.08-.06l.02.02c-.02-.03-.04-.05-.06-.08a.01.01,0,0,0,.01.01c-.02-.06-.03-.13-.05-.19v.01c.02-.06.03-.13.05-.19v.01c.02-.03.04-.05.06-.08h-.01c.03-.02.05-.04.08-.06h-.01c.03-.01.06-.03.09-.04-.01,0-.02.01-.03.01.03,0,.07-.01.1-.01h-.04c.03,0,.07.01.1.01a1.105,1.105,0,0,1-.31-.09l.09.69a.747.747,0,0,1,.12-.07c-.03.01-.06.03-.09.04a.292.292,0,0,1,.09-.02c-.03,0-.07.01-.1.01a1.5,1.5,0,0,1,.3,0c-.03,0-.07-.01-.1-.01l.12.03c-.03-.01-.06-.03-.09-.04.01,0,.01.01.02.01v-.65a.406.406,0,0,0-.09.05.807.807,0,0,0-.14.12.755.755,0,0,0-.11.14c-.02.03-.03.05-.05.08.02-.03.04-.05.06-.08l-.02.02c.03-.02.05-.04.08-.06l-.01.01c.03-.01.06-.03.09-.04h-.02c.03,0,.07-.01.1-.01h-.01c.03,0,.07.01.1.01-.01,0-.01,0-.02-.01.03.01.06.03.09.04a2.6,2.6,0,0,0-.25-.1c.03.01.06.03.09.04a.25.25,0,0,1-.07-.04c.03.02.05.04.08.06l-.03-.03c.02.03.04.05.06.08a.076.076,0,0,1-.02-.04c.01.03.03.06.04.09-.01-.02-.01-.04-.02-.06,0,.03.01.07.01.1v-.04a.4.4,0,0,0-.11-.27.386.386,0,0,0-.54,0,.369.369,0,0,0-.11.27.687.687,0,0,0,.05.24.522.522,0,0,0,.14.2.837.837,0,0,0,.24.14.565.565,0,0,0,.12.04c-.03-.01-.06-.03-.09-.04a.3.3,0,0,1,.08.04.526.526,0,0,0,.17.04.457.457,0,0,0,.31-.13,2.427,2.427,0,0,0,.14-.2c-.02.03-.04.05-.06.08a.3.3,0,0,1,.08-.08c-.03.02-.05.04-.08.06a.262.262,0,0,1,.09-.05.325.325,0,0,0,.13-.13.386.386,0,0,0,0-.38.325.325,0,0,0-.13-.13,1.043,1.043,0,0,0-.16-.06l-.18-.03a1.086,1.086,0,0,0-.18-.01.8.8,0,0,0-.27.03.836.836,0,0,0-.23.12.534.534,0,0,0-.13.13c-.01.03-.03.06-.04.09a.257.257,0,0,0-.01.15.14.14,0,0,0,.03.09.137.137,0,0,0,.05.08.234.234,0,0,0,.07.07.329.329,0,0,0,.13.07,1.87,1.87,0,0,0,.22.07.645.645,0,0,0,.2.03c.05,0,.09-.01.14-.01a.037.037,0,0,0,.03-.01c.03-.01.07-.03.1-.04a.4.4,0,0,0,.14-.53.42.42,0,0,0-.18-.17.442.442,0,0,0-.16-.06c-.03-.01-.06-.01-.08-.02.03.01.06.03.09.04-.01,0-.02-.01-.03-.02.03.02.05.04.08.06a.76.76,0,0,0-.26-.16.474.474,0,0,0-.31.04.489.489,0,0,0-.16.16.471.471,0,0,0,.01.46.556.556,0,0,0,.21.22.974.974,0,0,0,.22.08c.05.01.09.03.14.04a.471.471,0,0,0,.44-.11c.02-.03.05-.06.07-.09a.21.21,0,0,0,.04-.11.127.127,0,0,0,.01-.06c-.01.03-.03.06-.04.09a.035.035,0,0,1,.01-.02c-.02.03-.04.05-.06.08l.03-.03c-.03.02-.05.04-.08.06l.06-.03c-.03.01-.06.03-.09.04.01,0,.02-.01.03-.01a.239.239,0,0,0,.13-.07.357.357,0,0,0,.1-.11c.01-.03.03-.06.04-.09a.257.257,0,0,0,.01-.15.372.372,0,0,0-.1-.22.386.386,0,0,0-.27-.11h-.05c.03,0,.07.01.1.01a.186.186,0,0,1-.07-.02l-.16-.03a.708.708,0,0,0-.14-.01.756.756,0,0,0-.15.01.653.653,0,0,0-.24.06.489.489,0,0,0-.16.16.425.425,0,0,0-.04.31.478.478,0,0,0,.1.17.551.551,0,0,0,.09.07,1.462,1.462,0,0,0,.13.09c.04.03.08.05.12.08a.485.485,0,0,0,.39.06.38.38,0,0,0,.22-.17.369.369,0,0,0,.04-.29.38.38,0,0,0-.17-.22.471.471,0,0,0-.36-.07Z" fill="#8f2c61"/><path d="M236.23,273.73a.375.375,0,0,0,0-.75.375.375,0,0,0,0,.75Z" fill="#8f2c61"/><path d="M230.29,325.4a4.664,4.664,0,0,1,.25.5c-.08-.2-.17-.4-.25-.6a4.481,4.481,0,0,1,.2.62,2.8,2.8,0,0,0,1.15,1.49,1.965,1.965,0,0,0,.93.3,2,2,0,0,0,1-.04c.2-.08.4-.17.6-.25a2.5,2.5,0,0,0,.9-.9c.08-.2.17-.4.25-.6a2.5,2.5,0,0,0,0-1.33,3.931,3.931,0,0,0-.19-.58,9.6,9.6,0,0,0-.52-1.13,2.571,2.571,0,0,0-3.42-.89l-.51.39a2.5,2.5,0,0,0-.64,1.1l-.09.66a2.459,2.459,0,0,0,.34,1.26Z" fill="#6e4e2f"/><path d="M196.89,310.48a25.694,25.694,0,0,0,12.24,3.16c1.97.08,3.94.07,5.91.01a11.228,11.228,0,0,0,6.2-1.64,2.563,2.563,0,0,0,.9-3.42,2.524,2.524,0,0,0-3.42-.9,7.426,7.426,0,0,1-4.37.97c-1.74.03-3.48.05-5.21-.02a20.251,20.251,0,0,1-9.71-2.47c-2.79-1.66-5.31,2.66-2.54,4.31Z"/><path d="M196.77,314a72.881,72.881,0,0,0,11.59,1.37c3.71.13,7.88.36,11.29-1.33a2.5,2.5,0,0,0-2.52-4.32,10.18,10.18,0,0,1-4.17.66c-1.67.05-3.33.05-5-.02a65.371,65.371,0,0,1-9.86-1.18,2.576,2.576,0,0,0-3.08,1.75,2.522,2.522,0,0,0,1.75,3.07Z"/><path d="M202.91,327.5a26.946,26.946,0,0,0,12.55.83,2.523,2.523,0,0,0,1.75-3.08,2.585,2.585,0,0,0-3.08-1.75c-.07.01-.84.12-.5.08s-.43.04-.5.05q-.63.06-1.26.09a24.868,24.868,0,0,1-2.73-.04c-.42-.03-.84-.06-1.25-.13.62.11-.15-.03-.27-.05-.24-.04-.48-.08-.72-.13a23.976,23.976,0,0,1-2.65-.69,2.5,2.5,0,0,0-1.34,4.82Z"/><path d="M203.63,325.23a70.6,70.6,0,0,0,10.78-.53,2.76,2.76,0,0,0,1.77-.73,2.549,2.549,0,0,0,.73-1.77c-.05-1.21-1.11-2.68-2.5-2.5a70.659,70.659,0,0,1-10.78.53,2.5,2.5,0,0,0,0,5Z" fill="#6e4e2f"/><path d="M201.21,319.67a2.983,2.983,0,0,0,.75,2.82,3.554,3.554,0,0,0,2.34.95c1.13.05,2.28-.05,3.41-.08l7.02-.18a2.5,2.5,0,1,0,0-5c-1.86.05-3.73.1-5.59.14-.91.02-1.83.05-2.74.07l-1.32.03-.66.02c.46.09.55.1.29.04a1.927,1.927,0,0,1,1.29,1.31v1.33c.01-.04.01-.08.02-.11a2.558,2.558,0,0,0-1.75-3.08,2.518,2.518,0,0,0-3.06,1.74Z" fill="#5a3a1b"/><path d="M234.79,330.01a17.714,17.714,0,0,0,3.97-.52,2.8,2.8,0,0,0,1.49-1.15,1.965,1.965,0,0,0,.3-.93,2,2,0,0,0-.04-1,2.53,2.53,0,0,0-1.15-1.49,2.637,2.637,0,0,0-1.93-.25,14.182,14.182,0,0,1-1.58.3l.66-.09a14.238,14.238,0,0,1-1.73.13,2.593,2.593,0,0,0-1.77.73,1.915,1.915,0,0,0-.52.8,1.884,1.884,0,0,0-.22.96,2.531,2.531,0,0,0,.73,1.77,2.663,2.663,0,0,0,1.79.74Z" fill="#5a3a1b"/><path d="M251.71,314.99a1.251,1.251,0,0,0,0-2.5,1.251,1.251,0,0,0,0,2.5Z"/><path d="M251.71,313.74v4.43l2.57,1.48,3.27,1.03h2.47l2.3-.59,2.39-1.03.97-1.85v-3.47l-1.86,1.03-3.97,1.19-4.07-.15Z" fill="#a17d56" stroke="#000" stroke-miterlimit="10" stroke-width="0.5"/><path d="M264.71,319.06l-1.95,10.79-2.03,1.58-2.03.78-2.13-.78-1.94-1.58-2-10.79" fill="#5a3a1b" stroke="#000" stroke-miterlimit="10" stroke-width="0.5"/><path d="M265.68,313.73l-.17-1.42-.45-.57-.86-.53-.45.31-2.08,1.81-1.9.84-2.4-.43-2.08-1.31-1.38-1.96-2.2,1.44v1.84l4.07,2.06,4.07.15,3.97-1.19Z" fill="#bc9b72" stroke="#000" stroke-miterlimit="10" stroke-width="0.5"/><path d="M254.43,294.84l2.45-2.28,2.93-.45,3.44,2.73,1.9,2.33.72,1.96.36,4.31-.55,3.7-.58,1.66-.9,2.42-.9.69-3.53,2.26-2.4-.43-2.08-1.31-1.38-1.96-1.28-2.8-.64-4.23.64-5.14Z" fill="#43914d" stroke="#000" stroke-miterlimit="10" stroke-width="0.5"/><path d="M268.31,297.09l2.54-2.64,1.17-4.91-.36-4.08-1.22-2.27-3.17-1.2h-1.4l-1.16,1.43-2.14,3.63-.55,1.59-.31.9-.22,3.91,2.88,2.76,1.5,2.92Z" fill="#43914d" stroke="#000" stroke-miterlimit="10" stroke-width="0.5"/><path d="M260.27,287.8l1.75.84.74-2.27.91-1.19,1.04-1.76.69-.85-.25-2.47-.44-2.04-1.55-2.42-1.67-1.13h-1.86l-1.26,1.05-.68,1.52-.45,1.81v2.68l.36,1.7.81,1.89Z" fill="#43914d" stroke="#000" stroke-miterlimit="10" stroke-width="0.5"/><path d="M269.44,313.74" fill="#bc9b72" stroke="#000" stroke-miterlimit="10" stroke-width="0.5"/><path d="M260.73,298.78" fill="#bc9b72" stroke="#000" stroke-miterlimit="10" stroke-width="0.5"/><path d="M251.99,302.86a1.251,1.251,0,0,0,0-2.5,1.251,1.251,0,0,0,0,2.5Z"/><path d="M253.62,297.9a1.251,1.251,0,0,0,0-2.5,1.251,1.251,0,0,0,0,2.5Z"/><path d="M256.7,294.97a1.251,1.251,0,0,0,0-2.5,1.251,1.251,0,0,0,0,2.5Z"/><path d="M265.97,304.39a1.251,1.251,0,0,0,0-2.5,1.251,1.251,0,0,0,0,2.5Z"/><path d="M263.77,312.4a1.251,1.251,0,0,0,0-2.5,1.251,1.251,0,0,0,0,2.5Z"/><path d="M253.16,308.02a1.251,1.251,0,0,0,0-2.5,1.251,1.251,0,0,0,0,2.5Z"/><path d="M265.68,308.39a1.251,1.251,0,0,0,0-2.5,1.251,1.251,0,0,0,0,2.5Z"/><path d="M270.58,295.8a1.251,1.251,0,0,0,0-2.5,1.251,1.251,0,0,0,0,2.5Z"/><path d="M255.54,293.31a1.251,1.251,0,0,0,0-2.5,1.251,1.251,0,0,0,0,2.5Z"/><path d="M257.26,293.36a1.251,1.251,0,0,0,0-2.5,1.251,1.251,0,0,0,0,2.5Z"/><path d="M267.78,299.01a1.251,1.251,0,0,0,0-2.5,1.251,1.251,0,0,0,0,2.5Z"/><path d="M271.78,291.63a1.251,1.251,0,0,0,0-2.5,1.251,1.251,0,0,0,0,2.5Z"/><path d="M272.78,289.15a1.251,1.251,0,0,0,0-2.5,1.251,1.251,0,0,0,0,2.5Z"/><path d="M273.28,291.12a1.251,1.251,0,0,0,0-2.5,1.251,1.251,0,0,0,0,2.5Z"/><path d="M267.2,304.39a1.251,1.251,0,0,0,0-2.5,1.251,1.251,0,0,0,0,2.5Z"/><path d="M257.24,277.07a1.251,1.251,0,0,0,0-2.5,1.251,1.251,0,0,0,0,2.5Z"/><path d="M258.21,275.66a1.251,1.251,0,0,0,0-2.5,1.251,1.251,0,0,0,0,2.5Z"/><path d="M259.77,275.47a1.251,1.251,0,0,0,0-2.5,1.251,1.251,0,0,0,0,2.5Z"/><path d="M259.77,288.12a1.251,1.251,0,0,0,0-2.5,1.251,1.251,0,0,0,0,2.5Z"/><path d="M259.99,277.51a1.251,1.251,0,0,0,0-2.5,1.251,1.251,0,0,0,0,2.5Z"/><path d="M267.78,282.16a1.251,1.251,0,0,0,0-2.5,1.251,1.251,0,0,0,0,2.5Z"/><path d="M266.76,282.16a1.251,1.251,0,0,0,0-2.5,1.251,1.251,0,0,0,0,2.5Z"/><path d="M217.03,326.83c.24,0,.78-.36.3-.36-.24,0-.78.36-.3.36Z" fill="#43914d"/><path d="M216.71,326.43a.806.806,0,0,0,.07.59.146.146,0,0,0,.13.07.55.55,0,0,0,.22-.02.9.9,0,0,0,.23-.08.3.3,0,0,0,.14-.13,1.469,1.469,0,0,0,.13-.9c-.01-.05-.1-.07-.13-.07a.626.626,0,0,0-.27.03.619.619,0,0,0-.25.11c-.04.03-.09.07-.08.13a1.3,1.3,0,0,1,.02.34v-.04a1.294,1.294,0,0,1-.14.51l.72-.15a.8.8,0,0,1-.09-.43v.04a.585.585,0,0,1,.02-.13c.03-.14-.22-.12-.3-.1a1.014,1.014,0,0,0-.28.09c-.05.04-.13.08-.14.14Z"/><path d="M217.22,327.09q1.575-5.85,3.15-11.71c.08-.29-.66-.19-.73.08q-1.575,5.85-3.15,11.71c-.08.29.65.19.73-.08Z"/><path d="M217.72,326.71q.945-5.88,2.4-11.66c.05-.21-.67-.1-.72.11q-1.455,5.775-2.4,11.66c-.04.23.69.1.72-.11Z"/><path d="M217.21,326.68a7.827,7.827,0,0,1-1.19,1.25c-.03.03-.05.06-.01.09s.14.02.18.02a.963.963,0,0,0,.49-.17,8.154,8.154,0,0,0,1.24-1.32c.03-.04-.03-.07-.06-.07a.6.6,0,0,0-.23.01.65.65,0,0,0-.42.19Z"/><path d="M217.92,326.57a7.766,7.766,0,0,1,.08-1.67c.03-.18-.2-.25-.33-.23-.16.02-.37.11-.4.29a8.464,8.464,0,0,0-.08,1.67.192.192,0,0,0,.09.18.442.442,0,0,0,.25.06.493.493,0,0,0,.27-.1c.05-.05.13-.13.12-.2Z"/><path d="M201.35,326.55a5.324,5.324,0,0,0,5.1,3.05c.14-.01.4-.05.48-.18s-.08-.14-.17-.13a5.017,5.017,0,0,1-4.68-2.94c-.1-.18-.8.06-.73.2Z"/><path d="M206.46,328.96a15.575,15.575,0,0,1-2.18-.94.621.621,0,0,0-.51.08c-.1.06-.22.17-.07.25a15.575,15.575,0,0,0,2.18.94.655.655,0,0,0,.51-.08c.08-.04.23-.19.07-.25Z"/><path d="M205.96,329.47h1.84a.588.588,0,0,0,.48-.2c.09-.14-.08-.21-.2-.21h-1.84a.588.588,0,0,0-.48.2c-.09.13.08.21.2.21Z"/><path d="M217.04,326.09a2.254,2.254,0,0,1-.25,1.46,2.18,2.18,0,0,1-.44.56,1.308,1.308,0,0,1-.27.19.383.383,0,0,1-.11.05c.06-.03-.03.01-.04.01l-.03.01c-.07.02-.36.09-.33.21s.35.02.39.01a2.432,2.432,0,0,0,1.47-1.05,2.262,2.262,0,0,0,.33-1.64c-.02-.15-.75.01-.72.19Z"/><path d="M217.05,327.47a.941.941,0,0,0,.82-.68,11.451,11.451,0,0,0,.35-1.54,23.171,23.171,0,0,0,.37-3.22c.01-.28-.71-.13-.72.1a24.081,24.081,0,0,1-.27,2.68c-.07.43-.15.85-.24,1.27-.05.23-.1.45-.16.68-.02.07-.04.13-.06.2a.539.539,0,0,1-.07.13c-.07.08-.04.08.1,0-.12.01-.39.09-.41.24-.04.16.2.16.29.14Z"/><path d="M205.96,329.56c1.31-.03,2.61-.09,3.91-.2.14-.01.38-.1.41-.26s-.21-.19-.32-.18c-1.24.1-2.48.16-3.73.19a.576.576,0,0,0-.48.2c-.07.15.07.25.21.25Z"/><path d="M205.38,329.5a21.208,21.208,0,0,0,4.29.19c1.5-.06,3.01-.14,4.51-.21.37-.02.59-.45.09-.43-1.39.07-2.79.14-4.18.2a20.333,20.333,0,0,1-4.27-.16.559.559,0,0,0-.51.14c-.09.09-.1.24.07.27Z"/><path d="M213.84,329.41a5.275,5.275,0,0,0,2.13-.5,2.229,2.229,0,0,0,1.3-1.32c.05-.17-.22-.2-.32-.19a.479.479,0,0,0-.41.27,1.56,1.56,0,0,1-.92.91,3.772,3.772,0,0,1-1.51.37.546.546,0,0,0-.48.21c-.08.14.07.25.21.25Z"/><path d="M195.96,307.86c-.09.14-.19.28-.28.41a.091.091,0,0,0-.03.07c0,.02,0,.05.02.06a.2.2,0,0,0,.08.04.208.208,0,0,0,.11.01.639.639,0,0,0,.28-.06c.03-.01.05-.03.08-.04a.312.312,0,0,0,.11-.09c.09-.14.19-.28.28-.41a.091.091,0,0,0,.03-.07c0-.02,0-.05-.02-.06a.2.2,0,0,0-.08-.04.208.208,0,0,0-.11-.01.639.639,0,0,0-.28.06c-.03.01-.05.03-.08.04a.871.871,0,0,0-.11.09Z"/><path d="M195.77,307.48a4.459,4.459,0,0,0-1.04,2.08,6.167,6.167,0,0,0,.35,2.55c.04.15.77-.05.72-.19a6.319,6.319,0,0,1-.37-2.47,4.344,4.344,0,0,1,1.04-2.1c.07-.1-.27-.06-.29-.05a.664.664,0,0,0-.41.18Z"/><path d="M197.05,314.96a5.984,5.984,0,0,1-1.3-1.92c-.06-.13-.3-.09-.41-.06-.07.02-.38.13-.32.26a6.307,6.307,0,0,0,1.35,2c.17.16.85-.11.68-.28Z"/><path d="M197.36,315.27a6.6,6.6,0,0,1-1.31-3.79c-.13-1.2-.3-2.63.44-3.68.26-.37-.42-.46-.6-.2a5.492,5.492,0,0,0-.59,3.82,7.174,7.174,0,0,0,1.4,4.16c.19.25.89-.04.66-.31Z"/><path d="M199.64,318.75a15.4,15.4,0,0,1,.86,4.41,7.174,7.174,0,0,0,.54,2.03,12.986,12.986,0,0,1,.55,2.21c.04.26.77.09.72-.19a12.143,12.143,0,0,0-.52-2.14,7.7,7.7,0,0,1-.57-2.1,15.4,15.4,0,0,0-.86-4.41c-.09-.27-.81-.06-.72.19Z"/><path d="M217.77,320c-.33,1.46-.7,2.91-1.1,4.36-.05.18.21.25.34.25a.42.42,0,0,0,.4-.3c.4-1.44.77-2.9,1.1-4.36.08-.36-.66-.28-.74.05Z"/><path d="M218.07,319.08a3.421,3.421,0,0,1-.5,1.4,5.134,5.134,0,0,0-.44,1.54,12.313,12.313,0,0,1-1.03,3.25c-.06.12.25.08.29.07.12-.02.36-.07.42-.2a12.384,12.384,0,0,0,1.05-3.36,4.662,4.662,0,0,1,.47-1.51,3.242,3.242,0,0,0,.47-1.38c0-.11-.72-.02-.73.19Z"/><path d="M218.13,321.05a5.809,5.809,0,0,1,0-.59v.04a5.988,5.988,0,0,1,.1-.74c.03-.14-.22-.12-.3-.11a1.014,1.014,0,0,0-.28.09c-.05.03-.13.07-.14.13a4.848,4.848,0,0,0-.1,1.37c0,.05.1.07.13.07a.626.626,0,0,0,.27-.03c.11-.02.33-.09.32-.23Z"/><path d="M199.84,316.69a9.9,9.9,0,0,1,.6,2.21c.1.81.11,1.62.18,2.43a5.219,5.219,0,0,0,1.42,3.52c.15.13.81-.14.68-.25a5.245,5.245,0,0,1-1.39-3.61c-.06-.76-.08-1.53-.17-2.29a9.9,9.9,0,0,0-.6-2.21c-.06-.18-.77.04-.72.2Z" fill="#6e4e2f"/><path d="M201.28,320.66a11.766,11.766,0,0,0-.23-1.67,4.663,4.663,0,0,1-.24-1.61c.06-.39-.69-.3-.74.05a4.378,4.378,0,0,0,.23,1.64,10.136,10.136,0,0,1,.24,1.64.288.288,0,0,0,.34.26c.15-.02.42-.13.4-.31Z" fill="#6e4e2f"/><path d="M200.78,317.72c-.06-.34-.11-.69-.17-1.03a.944.944,0,0,0-.13-.4.564.564,0,0,0-.81-.02c-.04.05-.09.12-.06.19.06.16.29.17.42.13a.341.341,0,0,1-.2,0c-.05-.02-.05-.03-.03-.01-.06-.05-.01,0,.01.02s.01.02.02.03c-.01-.03-.02-.03-.01-.01a.145.145,0,0,1,.02.07,2.535,2.535,0,0,1,.07.38c.05.29.1.57.14.86.01.07.09.11.15.13a.5.5,0,0,0,.27,0c.15-.06.34-.17.31-.34Z" fill="#6e4e2f"/><path d="M199.53,316.37a23.491,23.491,0,0,0,.6,2.74c.22.93.43,1.86.65,2.8.07.29.79.11.72-.19-.22-.93-.43-1.86-.65-2.8a25.738,25.738,0,0,1-.6-2.74c-.03-.29-.75-.12-.72.19Z" fill="#6e4e2f"/><path d="M229.45,323.19a6.8,6.8,0,0,0,.46,2.27c.25.81.51,1.62.8,2.41.43,1.18.85,2.8,2.06,3.42.21.11.87-.2.58-.35a2.854,2.854,0,0,1-1.17-1.39c-.31-.65-.55-1.34-.8-2.02-.25-.7-.49-1.41-.71-2.13a6.888,6.888,0,0,1-.5-2.31c.02-.28-.71-.14-.72.1Z"/><path d="M230.29,323.1a.888.888,0,0,0-.08-.17.359.359,0,0,0-.07-.1.8.8,0,0,0-.13-.13.359.359,0,0,0-.1-.07.21.21,0,0,0-.11-.04.288.288,0,0,0-.13-.01.4.4,0,0,0-.15.03.518.518,0,0,0-.13.06l-.06.06a.223.223,0,0,0-.06.13v.07a.178.178,0,0,0,.08.11.444.444,0,0,1,.11.08l-.05-.05a.522.522,0,0,1,.14.19l-.03-.06a.3.3,0,0,1,.04.1.212.212,0,0,0,.15.14.585.585,0,0,0,.13.02.389.389,0,0,0,.15-.02.527.527,0,0,0,.24-.14.252.252,0,0,0,.06-.2Z"/><path d="M229.43,323.04a1.737,1.737,0,0,1,.31,1.11c0,.04.11.05.13.05a.635.635,0,0,0,.27-.04.871.871,0,0,0,.25-.1c.04-.03.08-.06.08-.11a1.754,1.754,0,0,0-.31-1.11.154.154,0,0,0-.13-.05.635.635,0,0,0-.27.04.871.871,0,0,0-.25.1c-.02.02-.11.08-.08.11Z"/><path d="M229.5,323.4a7.7,7.7,0,0,0,.34,1.06,4.239,4.239,0,0,1,.19,1.12c0,.06.1.08.14.09a.62.62,0,0,0,.27-.02c.12-.04.32-.11.32-.27a4.689,4.689,0,0,0-.19-1.12,10.045,10.045,0,0,1-.34-1.06c-.02-.14-.32-.1-.41-.07-.11.03-.35.12-.32.27Z"/><path d="M229.9,322.59a3.346,3.346,0,0,1-.53-.28,1.057,1.057,0,0,1-.33-.45,5.666,5.666,0,0,1-.46-1.14c-.03-.12-.32-.05-.4-.03a.619.619,0,0,0-.25.11c-.03.02-.1.07-.08.12a5.615,5.615,0,0,0,.47,1.17,1.413,1.413,0,0,0,.34.46,2.935,2.935,0,0,0,.55.3.64.64,0,0,0,.47-.03c.04-.02.35-.17.22-.23Z"/><path d="M227.85,320.59a.643.643,0,0,0,.07.31c.01.02.02.04.04.04a.149.149,0,0,0,.09.02h.12a.32.32,0,0,0,.14-.03c.03-.01.06-.02.1-.03a1.091,1.091,0,0,0,.15-.08c.02-.01.03-.03.05-.04a.113.113,0,0,0,.03-.08.547.547,0,0,1-.07-.31c-.01-.02-.02-.04-.04-.04a.149.149,0,0,0-.09-.02h-.12a.32.32,0,0,0-.14.03c-.03.01-.06.02-.1.03a1.091,1.091,0,0,0-.15.08c-.02.01-.03.03-.05.04a.067.067,0,0,0-.03.08Z"/><path d="M228.64,320.6a7.318,7.318,0,0,1-.23-2.03c.01-.12-.71-.03-.72.19a7.318,7.318,0,0,0,.23,2.03c.03.12.33.05.4.03s.35-.1.32-.22Z"/><path d="M229.68,322.34a.679.679,0,0,0,.2.07,1.416,1.416,0,0,0,.29.02,1.491,1.491,0,0,0,.71-.23c.03-.02.1-.07.08-.12s-.09-.06-.13-.06a.831.831,0,0,0-.27.03.8.8,0,0,0-.25.11.031.031,0,0,1-.02.01s.08-.04.04-.03a.035.035,0,0,0-.02.01c-.04.02.09-.04.05-.02-.02.01-.08.03,0,0s.04-.01.02-.01h-.01c-.03.01-.01,0,.08-.02h-.02c-.05.01.06-.01.06-.01h-.02a.09.09,0,0,1-.05-.01c.02,0,.04.01.06.01a.736.736,0,0,1-.14-.04c.01.01.03.01.04.02-.01,0-.01-.01-.02-.01a.108.108,0,0,0-.08-.02.205.205,0,0,0-.11,0,1.267,1.267,0,0,0-.28.06.2.2,0,0,0-.08.04.833.833,0,0,0-.12.08c-.02.04-.06.1-.01.12Z" fill="#5a3a1b"/><path d="M229.74,322.25l5.72.48a.821.821,0,0,0,.51-.14c.11-.08.11-.15-.04-.16l-5.72-.48a.821.821,0,0,0-.51.14c-.11.09-.11.15.04.16Z" fill="#382517"/><path d="M230.19,321.78a2.332,2.332,0,0,1,.57.17c.13.06.75-.03.65-.27-.2-.48-.92-.09-1.08.21l.7-.09c0-.1.12-.19.16-.27a.37.37,0,0,0,.06-.29c-.24.06-.48.13-.72.19a1.756,1.756,0,0,0,.85.85c.14.07.65,0,.65-.22a1.471,1.471,0,0,0-.2-.82c-.23.08-.47.16-.7.24a3.786,3.786,0,0,0,1.34,1.11c.13.07.74-.03.65-.27a17.625,17.625,0,0,0-.76-1.8c-.24.06-.48.13-.72.19a3.027,3.027,0,0,0,.57.76c.24.22.56.34.75.6a2.558,2.558,0,0,0,.11-.24c-.03.02-.07.04-.1.06.2,0,.39,0,.59.01a1.835,1.835,0,0,0-.4-.8c-.22.09-.45.19-.67.28l.94.76c.13.11.81,0,.7-.24-.13-.27-.26-.55-.39-.82-.23.08-.47.16-.7.24a6.136,6.136,0,0,1,1.21,1c.19-.11.37-.22.56-.33-.45-.08-.91,0-1.36-.05a10.288,10.288,0,0,1-1.33-.32c-.82-.2-1.78-.13-2.44-.75-.18-.17-.86.1-.67.28a4.58,4.58,0,0,0,2.48.81c.46.1.91.26,1.38.34.5.08,1.01-.02,1.5.07.12.02.75-.11.56-.33a5.86,5.86,0,0,0-1.21-1,.466.466,0,0,0-.43-.02c-.07.03-.33.14-.27.26.13.27.26.55.39.82.23-.08.47-.16.7-.24l-.94-.76c-.17-.14-.87.06-.67.28a1.618,1.618,0,0,1,.35.72c.05.21.48.07.59.01.03-.02.07-.04.1-.06.08-.05.19-.14.11-.24a4.009,4.009,0,0,0-.69-.54,2.521,2.521,0,0,1-.58-.72c-.13-.23-.83-.01-.72.19a17.625,17.625,0,0,1,.76,1.8c.22-.09.43-.18.65-.27a3.5,3.5,0,0,1-1.24-1.05c-.13-.17-.81.05-.7.24a1.394,1.394,0,0,1,.2.72c.22-.07.43-.15.65-.22a1.486,1.486,0,0,1-.7-.7c-.11-.23-.78-.06-.72.19.02.1-.09.18-.14.26a.443.443,0,0,0-.08.29c.01.24.63.03.7-.09.02-.03.03-.06.05-.09.1-.13-.03-.11-.37.06.22-.09.43-.18.65-.27a2.7,2.7,0,0,0-.7-.21.62.62,0,0,0-.51.14c-.14.09-.13.22.03.24Z" fill="#382517"/><path d="M229.57,320.82a1.292,1.292,0,0,1-.25-.87,2.637,2.637,0,0,0-.08-.49,1.954,1.954,0,0,1-.01-.54c0-.04-.12-.05-.13-.05a.831.831,0,0,0-.27.03c-.1.03-.32.08-.33.21a1.954,1.954,0,0,0,.01.54,2.781,2.781,0,0,1,.08.49,1.347,1.347,0,0,0,.25.87c.08.1.29.05.39.02.04-.01.4-.13.34-.21Z" fill="#382517"/><path d="M229.68,322.3c.11.01.24.12.34.15s.2.05.3.07c.26.06.52.1.78.14.54.08,1.08.12,1.63.15,1.11.06,2.22.07,3.33.19a.711.711,0,0,0,.51-.14c.1-.09.11-.18-.05-.2-1.11-.12-2.22-.13-3.33-.19-.54-.03-1.09-.07-1.63-.15a8.149,8.149,0,0,1-.86-.16,3.738,3.738,0,0,0-.56-.2.711.711,0,0,0-.51.14c-.1.09-.11.19.05.2Z" fill="#382517"/><path d="M231.43,322.22c-.16-.03-.31-.06-.47-.08a.288.288,0,0,0-.13-.01.318.318,0,0,0-.14.02.31.31,0,0,0-.13.06.254.254,0,0,0-.1.08c-.04.05-.09.11-.07.18a.188.188,0,0,0,.15.12c.16.03.31.06.47.08a.288.288,0,0,0,.13.01.318.318,0,0,0,.14-.02.31.31,0,0,0,.13-.06.254.254,0,0,0,.1-.08c.04-.05.09-.11.07-.18a.188.188,0,0,0-.15-.12Z" fill="#382517"/><path d="M229.56,322.23a2.685,2.685,0,0,0,1.51.51c.7.08,1.4.15,2.1.23a18.094,18.094,0,0,0,1.94.15,20.58,20.58,0,0,0,2.08-.17c.11-.01.41-.09.41-.24s-.2-.15-.31-.14a17.186,17.186,0,0,1-1.9.16,15.063,15.063,0,0,1-1.78-.13c-.61-.07-1.21-.13-1.82-.2a2.76,2.76,0,0,1-1.56-.45c-.18-.15-.85.13-.67.28Z" fill="#382517"/><path d="M232.55,328.44a1.274,1.274,0,0,1-.15-.25.487.487,0,0,1,.03.07,2.133,2.133,0,0,1-.15-.49.221.221,0,0,0-.16-.15.5.5,0,0,0-.52.13.263.263,0,0,0-.06.21,1.986,1.986,0,0,0,.33.81.333.333,0,0,0,.21.11.576.576,0,0,0,.29-.05.392.392,0,0,0,.18-.18.2.2,0,0,0,0-.21Z" fill="#5a3a1b"/><path d="M231.56,327.95a6.292,6.292,0,0,0,1.26,2.33.394.394,0,0,0,.49.06c.12-.07.29-.25.17-.39a5.987,5.987,0,0,1-1.2-2.2c-.05-.17-.28-.21-.43-.17-.15.06-.35.19-.29.37Z" fill="#5a3a1b"/><path d="M234.27,325.04a2.773,2.773,0,0,1,.36-.42c.07-.07.15-.14.22-.2l.02-.02c.02-.01.03-.03.05-.04a1.462,1.462,0,0,1,.13-.09l.24-.15c.04-.02-.05.02.02-.01l.06-.03c.05-.02.09-.04.14-.06a.693.693,0,0,1,.13-.05c.04-.01.06-.02.01,0,.02-.01.04-.01.06-.02.1-.03.2-.06.3-.08-.14-.04-.28-.07-.42-.11a.293.293,0,0,1-.07.22l-.08.08c-.07.06.04-.02-.03.02a.434.434,0,0,1-.07.04c-.02.01-.05.03-.07.04.04-.03,0,0-.02.01a1.861,1.861,0,0,0-.19.11,1.175,1.175,0,0,0-.3.24.163.163,0,0,0,.08.29.567.567,0,0,0,.51-.14.463.463,0,0,1,.07-.07c-.04.03.04-.02.04-.03.03-.02.05-.03.08-.05.01-.01.1-.05.03-.02a2.957,2.957,0,0,0,.38-.23.814.814,0,0,0,.36-.71c-.01-.06-.1-.1-.14-.12a.616.616,0,0,0-.27.01,3.842,3.842,0,0,0-2.3,1.53c-.1.14.09.24.2.24a.481.481,0,0,0,.47-.18Z" fill="#5a3a1b"/><path d="M198.66,314.88c3.22,0,3.22-5,0-5s-3.23,5,0,5Z"/><path d="M199.11,312.8c3.22,0,3.22-5,0-5s-3.22,5,0,5Z"/><path d="M197.53,311.29c3.22,0,3.22-5,0-5s-3.23,5,0,5Z"/><path d="M212.87,328.92a1.251,1.251,0,0,0,0-2.5,1.251,1.251,0,0,0,0,2.5Z"/><path d="M215.48,326.25a27.842,27.842,0,0,1-6.53,1.26c-1.66.11-3.79.26-5.18-.86a1.3,1.3,0,0,0-1.77,0,1.258,1.258,0,0,0,0,1.77c1.86,1.49,4.15,1.73,6.46,1.62a30.83,30.83,0,0,0,7.68-1.38c1.54-.48.88-2.89-.66-2.41Z"/></g></svg>